<?xml version="1.0" encoding="UTF-8"?>
<svg width="172px" height="30px" viewBox="0 0 172 30" version="1.1" xmlns="http://www.w3.org/2000/svg" xmlns:xlink="http://www.w3.org/1999/xlink">
    <!-- Generator: Sketch 56.3 (81716) - https://sketch.com -->
    <title>Group 7</title>
    <desc>Created with Sketch.</desc>
    <g id="Page-1" stroke="none" stroke-width="1" fill="none" fill-rule="evenodd">
        <g id="primary-bg" transform="translate(-603.000000, -418.000000)">
            <g id="Group-7" transform="translate(603.000000, 418.000000)">
                <path d="M100.976842,13.1206015 C99.4177444,13.1206015 98.0896241,13.5536842 97.3678195,14.1888722 C96.3861654,15.0839098 95.7221053,16.4120301 95.7221053,19.5302256 C95.7221053,22.3308271 95.3756391,25.5067669 92.7193985,27.7010526 C91.1603008,29.0003008 89.0237594,29.5777444 86.396391,29.5488722 L86.396391,25.9398496 C87.7533835,25.9398496 89.3124812,25.68 90.3230075,24.8427068 C91.2757895,24.0342857 91.9109774,22.7350376 91.9109774,19.5302256 C91.9109774,15.6902256 92.806015,13.207218 94.884812,11.4171429 C96.3284211,10.1178947 98.4360902,9.51157895 100.976842,9.48270677 L100.976842,13.1206015 Z M115.335704,20.8583459 L115.335704,29.5488722 L111.524576,29.5488722 L111.524576,20.8583459 C111.524576,19.9921805 111.235854,18.0288722 108.752847,18.0288722 C107.049388,18.0288722 105.865628,19.1837594 105.865628,20.8583459 L105.865628,29.5488722 L102.025628,29.5488722 L102.025628,8.06796992 L105.865628,8.06796992 L105.865628,15.4592481 C106.81841,14.7374436 107.973298,14.3043609 109.272546,14.3043609 C112.910441,14.3043609 115.335704,16.9317293 115.335704,20.8583459 Z M127.673513,24.8138346 L131.74449,24.8138346 C130.878325,27.8454135 128.250956,29.8953383 124.555317,29.8953383 C120.339979,29.8953383 116.933061,26.4306767 116.933061,22.1287218 C116.933061,17.8267669 120.339979,14.3043609 124.555317,14.3043609 C128.135468,14.3043609 131.138174,16.556391 131.859979,20.5407519 L121.350505,24.9581955 C122.101182,25.9687218 123.227197,26.5461654 124.526445,26.5461654 C125.767949,26.5461654 127.038325,25.997594 127.673513,24.8138346 Z M120.48434,21.9266165 L127.471407,18.9816541 C126.778475,18.1443609 125.739077,17.6535338 124.526445,17.6535338 C122.332159,17.6535338 120.570956,19.3858647 120.48434,21.9266165 Z M141.223953,14.3909774 L141.223953,17.9711278 C138.79869,17.5380451 137.181848,18.8372932 137.181848,20.9449624 L137.181848,29.5488722 L133.37072,29.5488722 L133.37072,20.9449624 C133.37072,16.7296241 136.28681,13.7846617 141.223953,14.3909774 Z M146.747927,13.0628571 L142.907927,13.0628571 L142.907927,10.9263158 C142.907927,9.85804511 143.774093,9.02075188 144.842364,9.02075188 C145.881762,9.02075188 146.747927,9.85804511 146.747927,10.9263158 L146.747927,13.0628571 Z M146.747927,14.6796992 L146.747927,29.5488722 L142.9368,29.5488722 L142.9368,14.6796992 L146.747927,14.6796992 Z M153.109195,14.7374436 L155.794308,14.7374436 L155.794308,18.1154887 L153.109195,18.1154887 L153.109195,29.5777444 L149.298067,29.5777444 L149.298067,14.9106767 C149.298067,10.955188 151.665586,8.01022556 155.938669,8.50105263 L155.938669,12.081203 C154.119721,11.9368421 153.138067,12.6875188 153.109195,14.7374436 Z M167.265951,24.8138346 L171.336929,24.8138346 C170.470763,27.8454135 167.843395,29.8953383 164.147756,29.8953383 C159.932418,29.8953383 156.5255,26.4306767 156.5255,22.1287218 C156.5255,17.8267669 159.932418,14.3043609 164.147756,14.3043609 C167.727906,14.3043609 170.730613,16.556391 171.452418,20.5407519 L160.942944,24.9581955 C161.693621,25.9687218 162.819636,26.5461654 164.118884,26.5461654 C165.360387,26.5461654 166.630763,25.997594 167.265951,24.8138346 Z M160.076778,21.9266165 L167.063846,18.9816541 C166.370914,18.1443609 165.331515,17.6535338 164.118884,17.6535338 C161.924598,17.6535338 160.163395,19.3858647 160.076778,21.9266165 Z" id="Sherife" fill="#000000" fill-rule="nonzero"></path>
                <g id="claro" fill="#E32620">
                    <g id="Combined-Shape">
                        <path d="M67.3258222,15.6912905 C68.9051122,17.3119806 69.6947722,19.2667806 69.6947722,21.5262607 C69.6947722,23.7848408 68.9051122,25.7412308 67.3258222,27.3227109 C65.7090621,28.9433109 63.7544421,29.769211 61.536512,29.769211 C59.3185219,29.769211 57.4002919,28.9433109 55.8228018,27.3227109 C54.2037617,25.7412308 53.4167117,23.7848408 53.4167117,21.5262607 C53.4167117,19.2667806 54.2037617,17.3119806 55.8228018,15.6912905 C57.4002919,14.0744405 59.3185219,13.2804304 61.536512,13.2804304 C63.7544421,13.2804304 65.7090621,14.0744405 67.3258222,15.6912905 Z M64.5805221,24.5760308 C65.4092121,23.7093908 65.8210521,22.6921507 65.8615521,21.5262607 C65.8210521,20.2850407 65.4092121,19.2667806 64.6175721,18.4400106 C63.7544421,17.5755006 62.739902,17.1595806 61.536512,17.1976806 C60.3727519,17.1595806 59.3565319,17.5755006 58.5299419,18.4400106 C57.7018519,19.2667806 57.2506218,20.2850407 57.2506218,21.5262607 C57.2506218,22.6921507 57.7018519,23.7093908 58.5299419,24.5760308 C59.3565319,25.4443808 60.3727519,25.8534908 61.536512,25.8534908 C62.739902,25.8534908 63.7544421,25.4443808 64.5805221,24.5760308 Z M10.0721403,9.2547603 C12.3285904,9.2171703 14.3972405,9.93165032 16.2003305,11.3643304 C17.9664306,12.7544704 19.1330106,14.5619705 19.7331306,16.7455205 L15.6365105,16.7455205 C15.1103105,15.6912905 14.3597405,14.7889505 13.4185204,14.1492605 C12.3660904,13.4698204 11.2761304,13.1325304 10.0721403,13.1325304 C8.34345027,13.1325304 6.87822022,13.7719504 5.67372018,14.9767805 C4.43640014,16.2171905 3.83313012,17.6874306 3.86955012,19.4185806 C3.83313012,21.1522807 4.43640014,22.6167307 5.67372018,23.8579508 C6.87822022,25.0650008 8.34345027,25.7052608 10.0721403,25.7052608 C11.2761304,25.7052608 12.3660904,25.3674908 13.4185204,24.7254608 C14.3597405,24.0456308 15.1103105,23.1833407 15.6365105,22.1284207 L19.7331306,22.1284207 C19.1330106,24.3121508 17.9664306,26.0798708 16.2003305,27.5097309 C14.3972405,28.9036809 12.3285904,29.583241 10.0721403,29.583241 C7.25403023,29.583241 4.92096016,28.6028109 2.9669401,26.6459709 C0.974880031,24.6530708 -3.26849658e-13,22.2018307 -3.26849658e-13,19.4185806 C-3.26849658e-13,16.5937205 0.974880031,14.2232705 2.9669401,12.2275504 C4.92096016,10.1960403 7.25403023,9.2171703 10.0721403,9.2547603 Z M34.8851111,13.2444604 C36.5757612,13.2050104 38.0778312,13.5457504 39.4323313,14.2611005 C40.7087713,14.9391905 41.3900113,16.2545105 41.3900113,18.1382106 L41.3900113,29.658421 L37.4773512,29.658421 L37.4773512,28.0380009 C36.2733612,29.0928309 34.5832211,29.619811 32.442271,29.658421 C31.123711,29.619811 30.033271,29.2464909 29.2440909,28.5666009 C28.3442109,27.7388109 27.8940009,26.6067009 27.9309909,25.2181808 C27.8940009,23.2190707 28.6065609,21.8281507 30.071101,20.9631307 C30.938071,20.4704107 32.063911,20.1334206 33.4535411,19.9428306 L36.4628412,19.4572506 C37.0630512,19.1950806 37.3649412,18.7767906 37.3649412,18.2519106 C37.3268412,17.6122506 37.1378712,17.1595806 36.6882012,16.9331105 C36.2379912,16.6685705 35.5999511,16.5165905 34.7736911,16.5571505 C33.7935311,16.5165905 33.1179911,16.7823605 32.7047711,17.3119806 C32.442271,17.6122506 32.213671,18.0646506 32.141551,18.7427706 L28.2301809,18.7427706 C28.3442109,17.3119806 28.6830909,16.1799305 29.3571009,15.3151505 C30.410491,13.9217104 32.253391,13.2050104 34.8851111,13.2444604 Z M36.5387712,22.0890607 L34.5832211,22.5793207 C33.7549211,22.6921507 33.1179911,22.8807007 32.7409211,23.1060307 C32.103901,23.5209608 31.800991,24.0879908 31.800991,24.8774108 C31.800991,25.5915908 31.991551,26.0798708 32.365291,26.4213009 C32.7409211,26.7190209 33.1923011,26.8713309 33.7549211,26.8713309 C34.6580411,26.8713309 35.4477911,26.6067009 36.1998012,26.0798708 C36.9125112,25.5530408 37.2884112,24.6108908 37.2884112,23.2587908 L37.2884112,21.6789907 L36.5387712,22.0890607 Z M21.7256107,29.658421 L21.7256107,9.2546703 L25.6358708,9.2546703 L25.6358708,29.658421 L21.7256107,29.658421 Z M50.5202716,13.8087904 L52.0282817,13.3944604 L53.0430317,13.3179304 L53.0779217,17.3119806 L51.8771417,17.2339206 C51.1223416,17.2339206 50.4097216,17.4607206 49.7340016,17.9133606 C49.1308216,18.3276006 48.6420016,18.8178606 48.3811816,19.4185806 C48.0425716,19.9845006 47.8898415,20.8854907 47.8898415,22.1675407 L47.8898415,29.659021 L44.0177414,29.659021 L44.0177414,13.9987505 L47.7387915,14.0332805 L47.7387915,16.0284005 C48.5322316,14.9399705 49.4708116,14.2241105 50.5202716,13.8087904 Z M70.3704923,13.8852304 L67.8900622,11.4002104 L77.3261125,1.95336006 L79.8086726,4.43532014 L70.3704923,13.8852304 Z M60.2597419,10.1203503 L60.2597419,-2.84217094e-14 L63.7545321,-2.84217094e-14 L63.7545321,10.1203503 L60.2597419,10.1203503 Z M72.1005323,21.3009007 L72.1005323,17.8008606 L82.4398827,17.8008606 L82.4398827,21.3009007 L72.1005323,21.3009007 Z"></path>
                    </g>
                </g>
            </g>
        </g>
    </g>
</svg>