<?xml version="1.0" encoding="UTF-8"?>
<svg width="197px" height="37px" viewBox="0 0 197 37" version="1.1" xmlns="http://www.w3.org/2000/svg" xmlns:xlink="http://www.w3.org/1999/xlink">
    <!-- Generator: Sketch 56.3 (81716) - https://sketch.com -->
    <title>Group</title>
    <desc>Created with Sketch.</desc>
    <g id="Page-1" stroke="none" stroke-width="1" fill="none" fill-rule="evenodd">
        <g id="Group">
            <g id="Group-7-Copy" fill="#E32620">
                <g id="claro">
                    <g id="Combined-Shape">
                        <path d="M67.3258222,15.6912905 C68.9051122,17.3119806 69.6947722,19.2667806 69.6947722,21.5262607 C69.6947722,23.7848408 68.9051122,25.7412308 67.3258222,27.3227109 C65.7090621,28.9433109 63.7544421,29.769211 61.536512,29.769211 C59.3185219,29.769211 57.4002919,28.9433109 55.8228018,27.3227109 C54.2037617,25.7412308 53.4167117,23.7848408 53.4167117,21.5262607 C53.4167117,19.2667806 54.2037617,17.3119806 55.8228018,15.6912905 C57.4002919,14.0744405 59.3185219,13.2804304 61.536512,13.2804304 C63.7544421,13.2804304 65.7090621,14.0744405 67.3258222,15.6912905 Z M64.5805221,24.5760308 C65.4092121,23.7093908 65.8210521,22.6921507 65.8615521,21.5262607 C65.8210521,20.2850407 65.4092121,19.2667806 64.6175721,18.4400106 C63.7544421,17.5755006 62.739902,17.1595806 61.536512,17.1976806 C60.3727519,17.1595806 59.3565319,17.5755006 58.5299419,18.4400106 C57.7018519,19.2667806 57.2506218,20.2850407 57.2506218,21.5262607 C57.2506218,22.6921507 57.7018519,23.7093908 58.5299419,24.5760308 C59.3565319,25.4443808 60.3727519,25.8534908 61.536512,25.8534908 C62.739902,25.8534908 63.7544421,25.4443808 64.5805221,24.5760308 Z M10.0721403,9.2547603 C12.3285904,9.2171703 14.3972405,9.93165032 16.2003305,11.3643304 C17.9664306,12.7544704 19.1330106,14.5619705 19.7331306,16.7455205 L15.6365105,16.7455205 C15.1103105,15.6912905 14.3597405,14.7889505 13.4185204,14.1492605 C12.3660904,13.4698204 11.2761304,13.1325304 10.0721403,13.1325304 C8.34345027,13.1325304 6.87822022,13.7719504 5.67372018,14.9767805 C4.43640014,16.2171905 3.83313012,17.6874306 3.86955012,19.4185806 C3.83313012,21.1522807 4.43640014,22.6167307 5.67372018,23.8579508 C6.87822022,25.0650008 8.34345027,25.7052608 10.0721403,25.7052608 C11.2761304,25.7052608 12.3660904,25.3674908 13.4185204,24.7254608 C14.3597405,24.0456308 15.1103105,23.1833407 15.6365105,22.1284207 L19.7331306,22.1284207 C19.1330106,24.3121508 17.9664306,26.0798708 16.2003305,27.5097309 C14.3972405,28.9036809 12.3285904,29.583241 10.0721403,29.583241 C7.25403023,29.583241 4.92096016,28.6028109 2.9669401,26.6459709 C0.974880031,24.6530708 -3.26849658e-13,22.2018307 -3.26849658e-13,19.4185806 C-3.26849658e-13,16.5937205 0.974880031,14.2232705 2.9669401,12.2275504 C4.92096016,10.1960403 7.25403023,9.2171703 10.0721403,9.2547603 Z M34.8851111,13.2444604 C36.5757612,13.2050104 38.0778312,13.5457504 39.4323313,14.2611005 C40.7087713,14.9391905 41.3900113,16.2545105 41.3900113,18.1382106 L41.3900113,29.658421 L37.4773512,29.658421 L37.4773512,28.0380009 C36.2733612,29.0928309 34.5832211,29.619811 32.442271,29.658421 C31.123711,29.619811 30.033271,29.2464909 29.2440909,28.5666009 C28.3442109,27.7388109 27.8940009,26.6067009 27.9309909,25.2181808 C27.8940009,23.2190707 28.6065609,21.8281507 30.071101,20.9631307 C30.938071,20.4704107 32.063911,20.1334206 33.4535411,19.9428306 L36.4628412,19.4572506 C37.0630512,19.1950806 37.3649412,18.7767906 37.3649412,18.2519106 C37.3268412,17.6122506 37.1378712,17.1595806 36.6882012,16.9331105 C36.2379912,16.6685705 35.5999511,16.5165905 34.7736911,16.5571505 C33.7935311,16.5165905 33.1179911,16.7823605 32.7047711,17.3119806 C32.442271,17.6122506 32.213671,18.0646506 32.141551,18.7427706 L28.2301809,18.7427706 C28.3442109,17.3119806 28.6830909,16.1799305 29.3571009,15.3151505 C30.410491,13.9217104 32.253391,13.2050104 34.8851111,13.2444604 Z M36.5387712,22.0890607 L34.5832211,22.5793207 C33.7549211,22.6921507 33.1179911,22.8807007 32.7409211,23.1060307 C32.103901,23.5209608 31.800991,24.0879908 31.800991,24.8774108 C31.800991,25.5915908 31.991551,26.0798708 32.365291,26.4213009 C32.7409211,26.7190209 33.1923011,26.8713309 33.7549211,26.8713309 C34.6580411,26.8713309 35.4477911,26.6067009 36.1998012,26.0798708 C36.9125112,25.5530408 37.2884112,24.6108908 37.2884112,23.2587908 L37.2884112,21.6789907 L36.5387712,22.0890607 Z M21.7256107,29.658421 L21.7256107,9.2546703 L25.6358708,9.2546703 L25.6358708,29.658421 L21.7256107,29.658421 Z M50.5202716,13.8087904 L52.0282817,13.3944604 L53.0430317,13.3179304 L53.0779217,17.3119806 L51.8771417,17.2339206 C51.1223416,17.2339206 50.4097216,17.4607206 49.7340016,17.9133606 C49.1308216,18.3276006 48.6420016,18.8178606 48.3811816,19.4185806 C48.0425716,19.9845006 47.8898415,20.8854907 47.8898415,22.1675407 L47.8898415,29.659021 L44.0177414,29.659021 L44.0177414,13.9987505 L47.7387915,14.0332805 L47.7387915,16.0284005 C48.5322316,14.9399705 49.4708116,14.2241105 50.5202716,13.8087904 Z M70.3704923,13.8852304 L67.8900622,11.4002104 L77.3261125,1.95336006 L79.8086726,4.43532014 L70.3704923,13.8852304 Z M60.2597419,10.1203503 L60.2597419,-2.84217094e-14 L63.7545321,-2.84217094e-14 L63.7545321,10.1203503 L60.2597419,10.1203503 Z M72.1005323,21.3009007 L72.1005323,17.8008606 L82.4398827,17.8008606 L82.4398827,21.3009007 L72.1005323,21.3009007 Z"></path>
                    </g>
                </g>
            </g>
            <path d="M93.804,25.249 L93.804,28.969 C89.123,29.465 86.643,26.644 86.643,22.273 L86.643,8.974 L90.735,8.974 L90.735,13.035 L93.618,13.035 L93.618,16.662 L90.735,16.662 L90.735,22.304 C90.735,24.536 91.758,25.373 93.804,25.249 Z M104.07508,12.725 L104.07508,16.569 C101.47108,16.104 99.7350798,17.499 99.7350798,19.762 L99.7350798,29 L95.6430798,29 L95.6430798,19.762 C95.6430798,15.236 98.7740798,12.074 104.07508,12.725 Z M121.25916,21.033 L121.25916,29 L117.38416,29 L117.38416,27.326 C116.17516,28.659 114.43916,29.341 112.51716,29.341 C108.30116,29.341 104.86016,25.621 104.86016,21.033 C104.86016,16.414 108.23916,12.632 113.07516,12.632 C117.88016,12.632 121.25916,16.414 121.25916,21.033 Z M117.16716,21.064 C117.16716,18.522 115.33816,16.476 113.07516,16.476 C110.81216,16.476 108.98316,18.429 108.98316,21.064 C108.98316,23.606 110.81216,25.559 113.07516,25.559 C115.33816,25.559 117.16716,23.544 117.16716,21.064 Z M138.939239,23.606 C138.009239,27.233 135.095239,29.372 131.220239,29.372 C126.415239,29.372 122.974239,25.652 122.974239,21.033 C122.974239,16.414 126.415239,12.632 131.220239,12.632 C135.064239,12.632 137.978239,14.802 138.908239,18.398 L134.537239,18.398 C133.979239,17.313 132.708239,16.383 131.220239,16.383 C128.957239,16.383 127.128239,18.491 127.128239,21.064 C127.128239,23.575 128.957239,25.652 131.220239,25.652 C132.739239,25.652 134.041239,24.722 134.568239,23.606 L138.939239,23.606 Z M151.876319,21.002 C153.643319,21.901 154.604319,23.637 154.604319,25.745 L154.604319,29 L150.481319,29 L150.481319,26.427 C150.481319,24.66 149.520319,22.986 147.040319,22.986 L144.777319,22.986 L144.777319,29 L140.654319,29 L140.654319,5.936 L144.777319,5.936 L144.777319,19.049 L147.040319,19.049 C149.520319,19.049 150.481319,17.344 150.481319,15.577 L150.481319,13.035 L154.604319,13.035 L154.604319,16.29 C154.604319,18.367 153.643319,20.134 151.876319,21.002 Z M161.372399,11.299 L157.249399,11.299 L157.249399,9.005 C157.249399,7.858 158.179399,6.959 159.326399,6.959 C160.442399,6.959 161.372399,7.858 161.372399,9.005 L161.372399,11.299 Z M161.372399,13.035 L161.372399,29 L157.280399,29 L157.280399,13.035 L161.372399,13.035 Z M164.110479,19.762 C164.110479,15.701 166.962479,12.632 171.302479,12.632 C175.766479,12.632 178.401479,15.577 178.401479,19.762 L178.401479,29 L174.309479,29 L174.309479,19.669 C174.309479,18.77 173.999479,16.631 171.302479,16.631 C169.504479,16.631 168.202479,17.871 168.202479,19.669 L168.202479,29 L164.110479,29 L164.110479,19.762 Z M196.515558,21.033 L196.515558,28.194 C196.515558,33.495 193.353558,36.812 188.238558,36.812 C184.394558,36.812 181.108558,34.611 180.488558,31.232 L184.952558,31.232 C185.479558,32.503 187.122558,32.999 188.238558,32.999 C191.121558,32.999 192.423558,31.108 192.423558,28.256 L192.423558,27.543 C191.214558,28.721 189.571558,29.341 187.773558,29.341 C183.557558,29.341 180.116558,25.621 180.116558,21.033 C180.116558,16.414 183.495558,12.632 188.331558,12.632 C193.136558,12.632 196.515558,16.414 196.515558,21.033 Z M192.423558,21.064 C192.423558,18.522 190.594558,16.476 188.331558,16.476 C186.068558,16.476 184.239558,18.429 184.239558,21.064 C184.239558,23.606 186.068558,25.559 188.331558,25.559 C190.594558,25.559 192.423558,23.544 192.423558,21.064 Z" id="tracking" fill="#000000" fill-rule="nonzero"></path>
        </g>
    </g>
</svg>