<?xml version="1.0" encoding="UTF-8"?>
<svg width="39px" height="64px" viewBox="0 0 39 64" version="1.1" xmlns="http://www.w3.org/2000/svg" xmlns:xlink="http://www.w3.org/1999/xlink">
    <!-- Generator: Sketch 56.3 (81716) - https://sketch.com -->
    <title>pin</title>
    <desc>Created with Sketch.</desc>
    <defs>
        <path d="M0.0167790865,3.92805128 C0.0167790865,6.08876808 5.34748146,7.83918923 11.9231921,7.83918923 L11.9231921,7.83918923 C18.4988221,7.83918923 23.8294976,6.08876808 23.8294976,3.92805128 L23.8294976,3.92805128 C23.8294976,1.76803248 18.4988221,0.0167790865 11.9231921,0.0167790865 L11.9231921,0.0167790865 C5.34748146,0.0167790865 0.0167790865,1.76803248 0.0167790865,3.92805128" id="path-1"></path>
        <linearGradient x1="50%" y1="0%" x2="50%" y2="167.291244%" id="linearGradient-3">
            <stop stop-color="#FFFFFF" stop-opacity="0" offset="0%"></stop>
            <stop stop-color="#000000" stop-opacity="0.5" offset="100%"></stop>
        </linearGradient>
        <path d="M19.0379811,0.0176113292 C16.1685157,0.0176113292 13.4820363,0.546004899 11.053042,1.58805329 L11.053042,1.58805329 C8.7631934,2.57036813 6.74623981,3.98705997 5.05812947,5.79879862 L5.05812947,5.79879862 C3.43458505,7.54113896 2.17024732,9.58641565 1.30028524,11.8778214 L1.30028524,11.8778214 C0.437437498,14.1503809 0,16.5652002 0,19.0552166 L0,19.0552166 C0,22.8481761 0.93479647,27.1750864 2.77842881,31.9157556 L2.77842881,31.9157556 C4.2819155,35.7817645 6.35970335,39.8635927 8.95401859,44.0479479 L8.95401859,44.0479479 C11.6295715,48.3633411 14.106809,51.5680123 15.3453203,53.0942381 L15.3453203,53.0942381 C16.2096178,54.1593476 17.0030941,55.0680493 17.6399208,55.7220041 L17.6399208,55.7220041 C18.5784758,56.6859022 18.845223,56.7666029 19.0379811,56.7666029 L19.0379811,56.7666029 C19.2306856,56.7666029 19.4974865,56.6859022 20.4360146,55.7220041 L20.4360146,55.7220041 C21.0727877,55.0680493 21.8662371,54.1593476 22.7305346,53.0942381 L22.7305346,53.0942381 C23.9690459,51.5680123 26.4462297,48.3633411 29.1217289,44.0479479 L29.1217289,44.0479479 C31.7159636,39.8635927 33.7936709,35.7817645 35.2971308,31.9157556 L35.2971308,31.9157556 C37.1407631,27.1750864 38.0755596,22.8481761 38.0755596,19.0552166 L38.0755596,19.0552166 C38.0755596,16.5726904 37.6380684,14.1624081 36.7753012,11.8913521 L36.7753012,11.8913521 C35.9050169,9.60067116 34.6408403,7.55493809 33.0177523,5.81101379 L33.0177523,5.81101379 C31.3289708,3.99642941 29.3120977,2.577214 27.0231619,1.59269774 L27.0231619,1.59269774 C24.593228,0.547561999 21.9066143,0.0176113292 19.0379811,0.0176113292 Z" id="path-4"></path>
        <linearGradient x1="33.1150291%" y1="-1.5542295%" x2="68.1007325%" y2="80.4289167%" id="linearGradient-6">
            <stop stop-color="#F5A1A6" offset="0%"></stop>
            <stop stop-color="#780001" offset="100%"></stop>
        </linearGradient>
        <path d="M0.01465821,18.6793651 C0.01465821,35.0187053 17.5217423,56.027115 18.6889761,56.027115 L18.6889761,56.027115 C19.8562368,56.027115 37.3628645,35.0187053 37.3628645,18.6793651 L37.3628645,18.6793651 C37.3628645,8.92075573 30.3599718,0.00542300077 18.6889761,0.00542300077 L18.6889761,0.00542300077 C7.01795362,0.00542300077 0.01465821,8.88845934 0.01465821,18.6793651" id="path-7"></path>
        <linearGradient x1="32.2502239%" y1="8.23080211%" x2="70.5174133%" y2="78.1492008%" id="linearGradient-9">
            <stop stop-color="#ED3027" offset="0%"></stop>
            <stop stop-color="#8F0B0E" offset="100%"></stop>
        </linearGradient>
        <path d="M0.00531561462,15.2293433 C0.00531561462,23.6379476 6.82183966,30.4550891 15.2310078,30.4550891 L15.2310078,30.4550891 C23.6396121,30.4550891 30.4561898,23.6379476 30.4561898,15.2293433 L30.4561898,15.2293433 C30.4561898,6.82020202 23.6396121,0.00306050539 15.2310078,0.00306050539 L15.2310078,0.00306050539 C6.82183966,0.00306050539 0.00531561462,6.82020202 0.00531561462,15.2293433" id="path-10"></path>
        <linearGradient x1="97.5902641%" y1="94.0599283%" x2="6.19383268%" y2="9.44343613%" id="linearGradient-12">
            <stop stop-color="#ED3027" offset="0%"></stop>
            <stop stop-color="#AF241B" offset="100%"></stop>
        </linearGradient>
        <path d="M0.0151146012,14.3626028 C0.0151146012,22.2859022 6.43812208,28.7083728 14.361341,28.7083728 L14.361341,28.7083728 C22.2841572,28.7083728 28.7067083,22.2859022 28.7067083,14.3626028 L28.7067083,14.3626028 C28.7067083,6.4395718 22.2841572,0.0165911608 14.361341,0.0165911608 L14.361341,0.0165911608 C6.43812208,0.0165911608 0.0151146012,6.4395718 0.0151146012,14.3626028" id="path-13"></path>
        <radialGradient cx="19.5712649%" cy="28.8966167%" fx="19.5712649%" fy="28.8966167%" r="82.0411104%" gradientTransform="translate(0.195713,0.288966),scale(1.000000,0.999993),rotate(180.000000),translate(-0.195713,-0.288966)" id="radialGradient-15">
            <stop stop-color="#8E97A4" offset="0%"></stop>
            <stop stop-color="#8692A1" offset="100%"></stop>
        </radialGradient>
        <path d="M0.000912782308,14.2207725 C0.000912782308,22.0720158 6.3654485,28.4360146 14.2165039,28.4360146 L14.2165039,28.4360146 C22.0673445,28.4360146 28.4315044,22.0720158 28.4315044,14.2207725 L28.4315044,14.2207725 C28.4315044,6.36974395 22.0673445,0.00526192154 14.2165039,0.00526192154 L14.2165039,0.00526192154 C6.3654485,0.00526192154 0.000912782308,6.36974395 0.000912782308,14.2207725" id="path-16"></path>
        <radialGradient cx="19.5712405%" cy="28.8965869%" fx="19.5712405%" fy="28.8965869%" r="82.0410262%" gradientTransform="translate(0.195712,0.288966),scale(1.000000,0.999994),rotate(180.000000),translate(-0.195712,-0.288966)" id="radialGradient-18">
            <stop stop-color="#9AA2AD" offset="0%"></stop>
            <stop stop-color="#8A97A6" offset="100%"></stop>
        </radialGradient>
        <path d="M0.0135306554,14.1057619 C0.0135306554,21.8849223 6.31962146,28.1905299 14.0985402,28.1905299 L14.0985402,28.1905299 C21.8774053,28.1905299 28.1831471,21.8849223 28.1831471,14.1057619 L28.1831471,14.1057619 C28.1831471,6.32678949 21.8774053,0.0207792208 14.0985402,0.0207792208 L14.0985402,0.0207792208 C6.31962146,0.0207792208 0.0135306554,6.32678949 0.0135306554,14.1057619" id="path-19"></path>
        <radialGradient cx="19.5712953%" cy="28.8966105%" fx="19.5712953%" fy="28.8966105%" r="82.0408739%" id="radialGradient-21">
            <stop stop-color="#A6ACB6" offset="0%"></stop>
            <stop stop-color="#8F9CAA" offset="100%"></stop>
        </radialGradient>
        <path d="M0.026175375,13.9639048 C0.026175375,21.6710359 6.27376758,27.9181181 13.9805497,27.9181181 L13.9805497,27.9181181 C21.687466,27.9181181 27.9347898,21.6710359 27.9347898,13.9639048 L27.9347898,13.9639048 C27.9347898,6.25696164 21.687466,0.00947682808 13.9805497,0.00947682808 L13.9805497,0.00947682808 C6.27376758,0.00947682808 0.026175375,6.25696164 0.026175375,13.9639048" id="path-22"></path>
        <radialGradient cx="19.5712737%" cy="28.8965085%" fx="19.5712737%" fy="28.8965085%" r="82.0406508%" id="radialGradient-24">
            <stop stop-color="#B3B8C1" offset="0%"></stop>
            <stop stop-color="#94A0B0" offset="100%"></stop>
        </radialGradient>
        <path d="M0.0119467096,13.8489211 C0.0119467096,21.4839693 6.20112084,27.6726065 13.8356858,27.6726065 L13.8356858,27.6726065 C21.4706802,27.6726065 27.6595859,21.4839693 27.6595859,13.8489211 L27.6595859,13.8489211 C27.6595859,6.21398033 21.4706802,0.0249672808 13.8356858,0.0249672808 L13.8356858,0.0249672808 C6.20112084,0.0249672808 0.0119467096,6.21398033 0.0119467096,13.8489211" id="path-25"></path>
        <radialGradient cx="19.5713298%" cy="28.8966289%" fx="19.5713298%" fy="28.8966289%" r="82.040492%" id="radialGradient-27">
            <stop stop-color="#C0C3CB" offset="0%"></stop>
            <stop stop-color="#98A5B5" offset="100%"></stop>
        </radialGradient>
        <path d="M0.0245914292,13.707064 C0.0245914292,21.270056 6.1552938,27.4002215 13.7177489,27.4002215 L13.7177489,27.4002215 C21.2807141,27.4002215 27.4112286,21.270056 27.4112286,13.707064 L27.4112286,13.707064 C27.4112286,6.14415249 21.2807141,0.0136648881 13.7177489,0.0136648881 L13.7177489,0.0136648881 C6.1552938,0.0136648881 0.0245914292,6.14415249 0.0245914292,13.707064" id="path-28"></path>
        <radialGradient cx="19.5713051%" cy="28.8965447%" fx="19.5713051%" fy="28.8965447%" r="82.040646%" id="radialGradient-30">
            <stop stop-color="#CED0D6" offset="0%"></stop>
            <stop stop-color="#9CABBB" offset="100%"></stop>
        </radialGradient>
        <path d="M0.0103896104,13.5652069 C0.0103896104,21.0561697 6.08262022,27.1278097 13.572885,27.1278097 L13.572885,27.1278097 C21.0639552,27.1278097 27.1360247,21.0561697 27.1360247,13.5652069 L27.1360247,13.5652069 C27.1360247,6.07432464 21.0639552,0.00233564885 13.572885,0.00233564885 L13.572885,0.00233564885 C6.08262022,0.00233564885 0.0103896104,6.07432464 0.0103896104,13.5652069" id="path-31"></path>
        <radialGradient cx="19.57128%" cy="28.8965821%" fx="19.57128%" fy="28.8965821%" r="82.0405854%" id="radialGradient-33">
            <stop stop-color="#DDDEE1" offset="0%"></stop>
            <stop stop-color="#A1B0C1" offset="100%"></stop>
        </radialGradient>
        <path d="M0.0230074835,13.4501963 C0.0230074835,20.8690761 6.03682003,26.8822981 13.4549482,26.8822981 L13.4549482,26.8822981 C20.8739622,26.8822981 26.8876674,20.8690761 26.8876674,13.4501963 L26.8876674,13.4501963 C26.8876674,6.03134333 20.8739622,0.0178529481 13.4549482,0.0178529481 L13.4549482,0.0178529481 C6.03682003,0.0178529481 0.0230074835,6.03134333 0.0230074835,13.4501963" id="path-34"></path>
        <radialGradient cx="19.5713378%" cy="28.8965258%" fx="19.5713378%" fy="28.8965258%" r="82.0407012%" id="radialGradient-36">
            <stop stop-color="#ECEDEE" offset="0%"></stop>
            <stop stop-color="#A7B6C7" offset="100%"></stop>
        </radialGradient>
        <path d="M0.00880566462,13.3083392 C0.00880566462,20.6551629 5.96409275,26.6099399 13.3100842,26.6099399 L13.3100842,26.6099399 C20.6571764,26.6099399 26.6124635,20.6551629 26.6124635,13.3083392 L26.6124635,13.3083392 C26.6124635,5.96154233 20.6571764,0.00649686231 13.3100842,0.00649686231 L13.3100842,0.00649686231 C5.96409275,0.00649686231 0.00880566462,5.96154233 0.00880566462,13.3083392" id="path-37"></path>
        <radialGradient cx="19.5713217%" cy="28.8966264%" fx="19.5713217%" fy="28.8966264%" r="82.0405394%" id="radialGradient-39">
            <stop stop-color="#FEFEFE" offset="0%"></stop>
            <stop stop-color="#B6B8BA" offset="100%"></stop>
        </radialGradient>
        <path d="M0.0601093996,20.2354173 C0.614919964,9.77420719 7.00439612,-1.52818551 24.3114467,0.807463338 L24.3114467,0.807463338 C21.9869392,0.270801034 19.8612034,0.0265512266 17.9207356,0.0265512266 L17.9207356,0.0265512266 C3.84480016,0.0265512266 -0.466834458,12.8819625 0.0601093996,20.2354173" id="path-40"></path>
        <path d="M0.00902043693,9.91748716 C10.9408235,9.75718648 14.4154099,-0.029665425 14.2430551,0.00998691231" id="path-42"></path>
        <path d="M0.00445652539,0.0119735562 L0.00445652539,1.27134468 C0.00445652539,1.75307896 0.413893084,2.14726669 0.914258868,2.14726669 L0.914258868,2.14726669 L2.29771469,2.14726669 C2.79808047,2.14726669 3.20751703,1.75307896 3.20751703,1.27134468 L3.20751703,1.27134468 L3.20751703,0.0119735562 L0.00445652539,0.0119735562 Z" id="path-44"></path>
        <linearGradient x1="-174.63269%" y1="-116.328037%" x2="295.5298%" y2="219.99254%" id="linearGradient-46">
            <stop stop-color="#ED3027" offset="0%"></stop>
            <stop stop-color="#AF241B" offset="100%"></stop>
        </linearGradient>
        <path d="M0.525440451,0.0761904762 C0.525440451,0.0761904762 0.165884761,0.10260747 0.0178261015,0.689526494 L0.0178261015,0.689526494 C-0.130232558,1.27649921 0.990046646,1.70658076 1.24460552,1.82113494 L1.24460552,1.82113494 C2.43962549,2.19655693 2.65114937,1.82642371 2.6881439,1.20777207 L2.6881439,1.20777207 C2.75160911,0.515050841 2.23339038,0.187200913 1.96900567,0.0761904762 L1.96900567,0.0761904762 C1.8722239,0.0339877177 1.67962683,0.0199201315 1.46571361,0.0199201315 L1.46571361,0.0199201315 C1.03802141,0.0199201315 0.525440451,0.0761904762 0.525440451,0.0761904762" id="path-47"></path>
        <linearGradient x1="-3.15696411%" y1="4.33273681%" x2="556.874476%" y2="440.579981%" id="linearGradient-49">
            <stop stop-color="#ED3027" offset="0%"></stop>
            <stop stop-color="#AF241B" offset="100%"></stop>
        </linearGradient>
        <path d="M0.0214235377,0.0119735562 L0.0214235377,1.27134468 C0.0214235377,1.75307896 0.430833249,2.14726669 0.93122588,2.14726669 L0.93122588,2.14726669 L2.31465485,2.14726669 C2.81502064,2.14726669 3.22448404,1.75307896 3.22448404,1.27134468 L3.22448404,1.27134468 L3.22448404,0.0119735562 L0.0214235377,0.0119735562 Z" id="path-50"></path>
        <linearGradient x1="-374.345272%" y1="-259.187783%" x2="95.816451%" y2="77.1322483%" id="linearGradient-52">
            <stop stop-color="#ED3027" offset="0%"></stop>
            <stop stop-color="#AF241B" offset="100%"></stop>
        </linearGradient>
        <path d="M0.74982382,0.0761904762 C0.485439109,0.187200913 -0.0327796235,0.515050841 0.0306855935,1.20777207 L0.0306855935,1.20777207 C0.06770697,1.82642371 0.279177154,2.19655693 1.47425081,1.82113494 L1.47425081,1.82113494 C1.72878285,1.70658076 2.84906205,1.27649921 2.70100339,0.689526494 L2.70100339,0.689526494 C2.55294473,0.10260747 2.19336219,0.0761904762 2.19336219,0.0761904762 L2.19336219,0.0761904762 C2.19336219,0.0761904762 1.68080808,0.0199201315 1.25311588,0.0199201315 L1.25311588,0.0199201315 C1.0392295,0.0199201315 0.846605591,0.0339877177 0.74982382,0.0761904762" id="path-53"></path>
        <linearGradient x1="-311.34648%" y1="-230.094547%" x2="248.682217%" y2="206.150572%" id="linearGradient-55">
            <stop stop-color="#ED3027" offset="0%"></stop>
            <stop stop-color="#AF241B" offset="100%"></stop>
        </linearGradient>
        <path d="M10.410148,0.00985267962 L10.3764019,0.00985267962 L6.73979664,0.00985267962 C5.28565388,0.00985267962 3.87293533,1.17850935 3.60044297,2.60690627 L3.60044297,2.60690627 L2.87024397,6.43468573 C1.54840095,6.57753616 0.510433236,7.70495654 0.510433236,9.06314977 L0.510433236,9.06314977 L0.510433236,11.0767475 C0.510433236,11.1743616 0.515963623,11.2707406 0.526406926,11.3656968 L0.526406926,11.3656968 C0.224893453,11.4954193 0.0123494077,11.7957515 0.0123494077,12.1433874 L0.0123494077,12.1433874 L0.0123494077,12.8941508 C0.0123494077,13.359455 0.393087016,13.7401926 0.858391221,13.7401926 L0.858391221,13.7401926 L10.3764019,13.7401926 L10.410148,13.7401926 L19.9281855,13.7401926 C20.3934897,13.7401926 20.7742005,13.359455 20.7742005,12.8941508 L20.7742005,12.8941508 L20.7742005,12.1433874 C20.7742005,11.7957515 20.5616564,11.4954193 20.260143,11.3656968 L20.260143,11.3656968 C20.2705863,11.2707406 20.2761435,11.1743616 20.2761435,11.0767475 L20.2761435,11.0767475 L20.2761435,9.06314977 C20.2761435,7.70495654 19.2381758,6.57753616 17.9163059,6.43468573 L17.9163059,6.43468573 L17.1860801,2.60690627 C16.9135877,1.17850935 15.5008692,0.00985267962 14.0467801,0.00985267962 L14.0467801,0.00985267962 L10.410148,0.00985267962 Z M4.63929662,2.80506057 C4.72380952,2.36193161 5.00151012,1.91815833 5.40112084,1.5875969 L5.40112084,1.5875969 C5.80075841,1.25698178 6.2886674,1.06739152 6.73979664,1.06739152 L6.73979664,1.06739152 L10.3764019,1.06739152 L10.410148,1.06739152 L14.0467801,1.06739152 C14.4979093,1.06739152 14.9858183,1.25698178 15.3854559,1.5875969 L15.3854559,1.5875969 C15.7850398,1.91815833 16.0627404,2.36193161 16.1472801,2.80506057 L16.1472801,2.80506057 L16.8367529,6.41927581 L10.410148,6.41927581 L10.3764019,6.41927581 L3.94979697,6.41927581 L4.63929662,2.80506057 Z M15.2710628,8.91707775 C15.2710628,8.08188194 15.9481325,7.4047854 16.7833551,7.4047854 L16.7833551,7.4047854 C17.6186047,7.4047854 18.2956744,8.08188194 18.2956744,8.91707775 L18.2956744,8.91707775 C18.2956744,9.75227357 17.6186047,10.429397 16.7833551,10.429397 L16.7833551,10.429397 C15.9481325,10.429397 15.2710628,9.75227357 15.2710628,8.91707775 L15.2710628,8.91707775 Z M2.49090238,8.91707775 C2.49090238,8.08188194 3.16797208,7.4047854 4.00319474,7.4047854 L4.00319474,7.4047854 C4.8384174,7.4047854 5.5154871,8.08188194 5.5154871,8.91707775 L5.5154871,8.91707775 C5.5154871,9.75227357 4.8384174,10.429397 4.00319474,10.429397 L4.00319474,10.429397 C3.16797208,10.429397 2.49090238,9.75227357 2.49090238,8.91707775 L2.49090238,8.91707775 Z M6.95376355,9.50265445 L6.95376355,9.4018457 C6.95376355,9.2273432 7.09653344,9.08457331 7.27100909,9.08457331 L7.27100909,9.08457331 L10.3764019,9.08457331 L10.410148,9.08457331 L13.5155139,9.08457331 C13.6900701,9.08457331 13.8328132,9.2273432 13.8328132,9.4018457 L13.8328132,9.4018457 L13.8328132,9.50265445 C13.8328132,9.67715695 13.6900701,9.81992684 13.5155139,9.81992684 L13.5155139,9.81992684 L10.410148,9.81992684 L10.3764019,9.81992684 L7.27100909,9.81992684 C7.09653344,9.81992684 6.95376355,9.67715695 6.95376355,9.50265445 L6.95376355,9.50265445 Z M6.95376355,11.0216048 L6.95376355,10.920796 C6.95376355,10.7462935 7.09653344,10.6035236 7.27100909,10.6035236 L7.27100909,10.6035236 L10.3764019,10.6035236 L10.410148,10.6035236 L13.5155139,10.6035236 C13.6900701,10.6035236 13.8328132,10.7462935 13.8328132,10.920796 L13.8328132,10.920796 L13.8328132,11.0216048 C13.8328132,11.1961073 13.6900701,11.3388771 13.5155139,11.3388771 L13.5155139,11.3388771 L10.410148,11.3388771 L10.3764019,11.3388771 L7.27100909,11.3388771 C7.09653344,11.3388771 6.95376355,11.1961073 6.95376355,11.0216048 L6.95376355,11.0216048 Z" id="path-56"></path>
        <linearGradient x1="12.5789694%" y1="31.8291268%" x2="85.1140642%" y2="83.3017699%" id="linearGradient-58">
            <stop stop-color="#ED3027" offset="0%"></stop>
            <stop stop-color="#AF241B" offset="100%"></stop>
        </linearGradient>
    </defs>
    <g id="Page-1" stroke="none" stroke-width="1" fill="none" fill-rule="evenodd">
        <g id="pin">
            <g id="Group-3" transform="translate(7.114333, 55.286151)">
                <mask id="mask-2" fill="white">
                    <use xlink:href="#path-1"></use>
                </mask>
                <g id="Clip-2"></g>
                <path d="M0.0167790865,3.92805128 C0.0167790865,6.08876808 5.34748146,7.83918923 11.9231921,7.83918923 L11.9231921,7.83918923 C18.4988221,7.83918923 23.8294976,6.08876808 23.8294976,3.92805128 L23.8294976,3.92805128 C23.8294976,1.76803248 18.4988221,0.0167790865 11.9231921,0.0167790865 L11.9231921,0.0167790865 C5.34748146,0.0167790865 0.0167790865,1.76803248 0.0167790865,3.92805128" id="Fill-1" fill="url(#linearGradient-3)" mask="url(#mask-2)"></path>
            </g>
            <g id="Group-6" transform="translate(0.000000, 0.009128)">
                <mask id="mask-5" fill="white">
                    <use xlink:href="#path-4"></use>
                </mask>
                <g id="Clip-5"></g>
                <path d="M19.0379811,0.0176113292 C16.1685157,0.0176113292 13.4820363,0.546004899 11.053042,1.58805329 L11.053042,1.58805329 C8.7631934,2.57036813 6.74623981,3.98705997 5.05812947,5.79879862 L5.05812947,5.79879862 C3.43458505,7.54113896 2.17024732,9.58641565 1.30028524,11.8778214 L1.30028524,11.8778214 C0.437437498,14.1503809 0,16.5652002 0,19.0552166 L0,19.0552166 C0,22.8481761 0.93479647,27.1750864 2.77842881,31.9157556 L2.77842881,31.9157556 C4.2819155,35.7817645 6.35970335,39.8635927 8.95401859,44.0479479 L8.95401859,44.0479479 C11.6295715,48.3633411 14.106809,51.5680123 15.3453203,53.0942381 L15.3453203,53.0942381 C16.2096178,54.1593476 17.0030941,55.0680493 17.6399208,55.7220041 L17.6399208,55.7220041 C18.5784758,56.6859022 18.845223,56.7666029 19.0379811,56.7666029 L19.0379811,56.7666029 C19.2306856,56.7666029 19.4974865,56.6859022 20.4360146,55.7220041 L20.4360146,55.7220041 C21.0727877,55.0680493 21.8662371,54.1593476 22.7305346,53.0942381 L22.7305346,53.0942381 C23.9690459,51.5680123 26.4462297,48.3633411 29.1217289,44.0479479 L29.1217289,44.0479479 C31.7159636,39.8635927 33.7936709,35.7817645 35.2971308,31.9157556 L35.2971308,31.9157556 C37.1407631,27.1750864 38.0755596,22.8481761 38.0755596,19.0552166 L38.0755596,19.0552166 C38.0755596,16.5726904 37.6380684,14.1624081 36.7753012,11.8913521 L36.7753012,11.8913521 C35.9050169,9.60067116 34.6408403,7.55493809 33.0177523,5.81101379 L33.0177523,5.81101379 C31.3289708,3.99642941 29.3120977,2.577214 27.0231619,1.59269774 L27.0231619,1.59269774 C24.593228,0.547561999 21.9066143,0.0176113292 19.0379811,0.0176113292 Z" id="Fill-4" fill="url(#linearGradient-6)" mask="url(#mask-5)"></path>
            </g>
            <g id="Group-9" transform="translate(0.349005, 0.384979)">
                <mask id="mask-8" fill="white">
                    <use xlink:href="#path-7"></use>
                </mask>
                <g id="Clip-8"></g>
                <path d="M0.01465821,18.6793651 C0.01465821,35.0187053 17.5217423,56.027115 18.6889761,56.027115 L18.6889761,56.027115 C19.8562368,56.027115 37.3628645,35.0187053 37.3628645,18.6793651 L37.3628645,18.6793651 C37.3628645,8.92075573 30.3599718,0.00542300077 18.6889761,0.00542300077 L18.6889761,0.00542300077 C7.01795362,0.00542300077 0.01465821,8.88845934 0.01465821,18.6793651" id="Fill-7" fill="url(#linearGradient-9)" mask="url(#mask-8)"></path>
            </g>
            <g id="Group-12" transform="translate(3.839055, 3.687104)">
                <mask id="mask-11" fill="white">
                    <use xlink:href="#path-10"></use>
                </mask>
                <g id="Clip-11"></g>
                <path d="M0.00531561462,15.2293433 C0.00531561462,23.6379476 6.82183966,30.4550891 15.2310078,30.4550891 L15.2310078,30.4550891 C23.6396121,30.4550891 30.4561898,23.6379476 30.4561898,15.2293433 L30.4561898,15.2293433 C30.4561898,6.82020202 23.6396121,0.00306050539 15.2310078,0.00306050539 L15.2310078,0.00306050539 C6.82183966,0.00306050539 0.00531561462,6.82020202 0.00531561462,15.2293433" id="Fill-10" fill="url(#linearGradient-12)" mask="url(#mask-11)"></path>
            </g>
            <path d="M4.59322259,18.9164308 C4.59322259,26.9117595 11.0747287,33.3927555 19.0700574,33.3927555 C27.0648492,33.3927555 33.5458183,26.9117595 33.5458183,18.9164308 C33.5458183,10.9213437 27.0648492,4.43989127 19.0700574,4.43989127 C11.0747287,4.43989127 4.59322259,10.9213437 4.59322259,18.9164308" id="Fill-13" fill="#828E9C"></path>
            <g id="Group-17" transform="translate(4.778684, 4.626732)">
                <mask id="mask-14" fill="white">
                    <use xlink:href="#path-13"></use>
                </mask>
                <g id="Clip-16"></g>
                <path d="M0.0151146012,14.3626028 C0.0151146012,22.2859022 6.43812208,28.7083728 14.361341,28.7083728 L14.361341,28.7083728 C22.2841572,28.7083728 28.7067083,22.2859022 28.7067083,14.3626028 L28.7067083,14.3626028 C28.7067083,6.4395718 22.2841572,0.0165911608 14.361341,0.0165911608 L14.361341,0.0165911608 C6.43812208,0.0165911608 0.0151146012,6.4395718 0.0151146012,14.3626028" id="Fill-15" fill="url(#radialGradient-15)" mask="url(#mask-14)"></path>
            </g>
            <g id="Group-20" transform="translate(4.993456, 4.841505)">
                <mask id="mask-17" fill="white">
                    <use xlink:href="#path-16"></use>
                </mask>
                <g id="Clip-19"></g>
                <path d="M0.000912782308,14.2207725 C0.000912782308,22.0720158 6.3654485,28.4360146 14.2165039,28.4360146 L14.2165039,28.4360146 C22.0673445,28.4360146 28.4315044,22.0720158 28.4315044,14.2207725 L28.4315044,14.2207725 C28.4315044,6.36974395 22.0673445,0.00526192154 14.2165039,0.00526192154 L14.2165039,0.00526192154 C6.3654485,0.00526192154 0.000912782308,6.36974395 0.000912782308,14.2207725" id="Fill-18" fill="url(#radialGradient-18)" mask="url(#mask-17)"></path>
            </g>
            <g id="Group-23" transform="translate(5.181382, 5.029431)">
                <mask id="mask-20" fill="white">
                    <use xlink:href="#path-19"></use>
                </mask>
                <g id="Clip-22"></g>
                <path d="M0.0135306554,14.1057619 C0.0135306554,21.8849223 6.31962146,28.1905299 14.0985402,28.1905299 L14.0985402,28.1905299 C21.8774053,28.1905299 28.1831471,21.8849223 28.1831471,14.1057619 L28.1831471,14.1057619 C28.1831471,6.32678949 21.8774053,0.0207792208 14.0985402,0.0207792208 L14.0985402,0.0207792208 C6.31962146,0.0207792208 0.0135306554,6.32678949 0.0135306554,14.1057619" id="Fill-21" fill="url(#radialGradient-21)" mask="url(#mask-20)"></path>
            </g>
            <g id="Group-26" transform="translate(5.369308, 5.244203)">
                <mask id="mask-23" fill="white">
                    <use xlink:href="#path-22"></use>
                </mask>
                <g id="Clip-25"></g>
                <path d="M0.026175375,13.9639048 C0.026175375,21.6710359 6.27376758,27.9181181 13.9805497,27.9181181 L13.9805497,27.9181181 C21.687466,27.9181181 27.9347898,21.6710359 27.9347898,13.9639048 L27.9347898,13.9639048 C27.9347898,6.25696164 21.687466,0.00947682808 13.9805497,0.00947682808 L13.9805497,0.00947682808 C6.27376758,0.00947682808 0.026175375,6.25696164 0.026175375,13.9639048" id="Fill-24" fill="url(#radialGradient-24)" mask="url(#mask-23)"></path>
            </g>
            <g id="Group-29" transform="translate(5.584080, 5.432129)">
                <mask id="mask-26" fill="white">
                    <use xlink:href="#path-25"></use>
                </mask>
                <g id="Clip-28"></g>
                <path d="M0.0119467096,13.8489211 C0.0119467096,21.4839693 6.20112084,27.6726065 13.8356858,27.6726065 L13.8356858,27.6726065 C21.4706802,27.6726065 27.6595859,21.4839693 27.6595859,13.8489211 L27.6595859,13.8489211 C27.6595859,6.21398033 21.4706802,0.0249672808 13.8356858,0.0249672808 L13.8356858,0.0249672808 C6.20112084,0.0249672808 0.0119467096,6.21398033 0.0119467096,13.8489211" id="Fill-27" fill="url(#radialGradient-27)" mask="url(#mask-26)"></path>
            </g>
            <g id="Group-32" transform="translate(5.772006, 5.646901)">
                <mask id="mask-29" fill="white">
                    <use xlink:href="#path-28"></use>
                </mask>
                <g id="Clip-31"></g>
                <path d="M0.0245914292,13.707064 C0.0245914292,21.270056 6.1552938,27.4002215 13.7177489,27.4002215 L13.7177489,27.4002215 C21.2807141,27.4002215 27.4112286,21.270056 27.4112286,13.707064 L27.4112286,13.707064 C27.4112286,6.14415249 21.2807141,0.0136648881 13.7177489,0.0136648881 L13.7177489,0.0136648881 C6.1552938,0.0136648881 0.0245914292,6.14415249 0.0245914292,13.707064" id="Fill-30" fill="url(#radialGradient-30)" mask="url(#mask-29)"></path>
            </g>
            <g id="Group-35" transform="translate(5.986778, 5.861673)">
                <mask id="mask-32" fill="white">
                    <use xlink:href="#path-31"></use>
                </mask>
                <g id="Clip-34"></g>
                <path d="M0.0103896104,13.5652069 C0.0103896104,21.0561697 6.08262022,27.1278097 13.572885,27.1278097 L13.572885,27.1278097 C21.0639552,27.1278097 27.1360247,21.0561697 27.1360247,13.5652069 L27.1360247,13.5652069 C27.1360247,6.07432464 21.0639552,0.00233564885 13.572885,0.00233564885 L13.572885,0.00233564885 C6.08262022,0.00233564885 0.0103896104,6.07432464 0.0103896104,13.5652069" id="Fill-33" fill="url(#radialGradient-33)" mask="url(#mask-32)"></path>
            </g>
            <g id="Group-38" transform="translate(6.174704, 6.049599)">
                <mask id="mask-35" fill="white">
                    <use xlink:href="#path-34"></use>
                </mask>
                <g id="Clip-37"></g>
                <path d="M0.0230074835,13.4501963 C0.0230074835,20.8690761 6.03682003,26.8822981 13.4549482,26.8822981 L13.4549482,26.8822981 C20.8739622,26.8822981 26.8876674,20.8690761 26.8876674,13.4501963 L26.8876674,13.4501963 C26.8876674,6.03134333 20.8739622,0.0178529481 13.4549482,0.0178529481 L13.4549482,0.0178529481 C6.03682003,0.0178529481 0.0230074835,6.03134333 0.0230074835,13.4501963" id="Fill-36" fill="url(#radialGradient-36)" mask="url(#mask-35)"></path>
            </g>
            <g id="Group-41" transform="translate(6.389476, 6.264371)">
                <mask id="mask-38" fill="white">
                    <use xlink:href="#path-37"></use>
                </mask>
                <g id="Clip-40"></g>
                <path d="M0.00880566462,13.3083392 C0.00880566462,20.6551629 5.96409275,26.6099399 13.3100842,26.6099399 L13.3100842,26.6099399 C20.6571764,26.6099399 26.6124635,20.6551629 26.6124635,13.3083392 L26.6124635,13.3083392 C26.6124635,5.96154233 20.6571764,0.00649686231 13.3100842,0.00649686231 L13.3100842,0.00649686231 C5.96409275,0.00649686231 0.00880566462,5.96154233 0.00880566462,13.3083392" id="Fill-39" fill="url(#radialGradient-39)" mask="url(#mask-38)"></path>
            </g>
            <g id="Group-44" transform="translate(0.644317, 0.733984)">
                <mask id="mask-41" fill="white">
                    <use xlink:href="#path-40"></use>
                </mask>
                <g id="Clip-43"></g>
                <path d="M0.0601093996,20.2354173 C0.614919964,9.77420719 7.00439612,-1.52818551 24.3114467,0.807463338 L24.3114467,0.807463338 C21.9869392,0.270801034 19.8612034,0.0265512266 17.9207356,0.0265512266 L17.9207356,0.0265512266 C3.84480016,0.0265512266 -0.466834458,12.8819625 0.0601093996,20.2354173" id="Fill-42" mask="url(#mask-41)"></path>
            </g>
            <g id="Group-47" transform="translate(19.061042, 24.224706)">
                <mask id="mask-43" fill="white">
                    <use xlink:href="#path-42"></use>
                </mask>
                <g id="Clip-46"></g>
                <path d="M0.00902043693,9.91748716 C10.9408235,9.75718648 14.4154099,-0.029665425 14.2430551,0.00998691231 C12.8243767,2.84119601 9.2753985,9.18589214 0.00902043693,9.91748716" id="Fill-45" mask="url(#mask-43)"></path>
            </g>
            <g id="Group-50" transform="translate(10.684922, 24.573711)">
                <mask id="mask-45" fill="white">
                    <use xlink:href="#path-44"></use>
                </mask>
                <g id="Clip-49"></g>
                <path d="M0.00445652539,0.0119735562 L0.00445652539,1.27134468 C0.00445652539,1.75307896 0.413893084,2.14726669 0.914258868,2.14726669 L0.914258868,2.14726669 L2.29771469,2.14726669 C2.79808047,2.14726669 3.20751703,1.75307896 3.20751703,1.27134468 L3.20751703,1.27134468 L3.20751703,0.0119735562 L0.00445652539,0.0119735562 Z" id="Fill-48" fill="url(#linearGradient-46)" mask="url(#mask-45)"></path>
            </g>
            <g id="Group-53" transform="translate(9.020437, 14.774724)">
                <mask id="mask-48" fill="white">
                    <use xlink:href="#path-47"></use>
                </mask>
                <g id="Clip-52"></g>
                <path d="M0.525440451,0.0761904762 C0.525440451,0.0761904762 0.165884761,0.10260747 0.0178261015,0.689526494 L0.0178261015,0.689526494 C-0.130232558,1.27649921 0.990046646,1.70658076 1.24460552,1.82113494 L1.24460552,1.82113494 C2.43962549,2.19655693 2.65114937,1.82642371 2.6881439,1.20777207 L2.6881439,1.20777207 C2.75160911,0.515050841 2.23339038,0.187200913 1.96900567,0.0761904762 L1.96900567,0.0761904762 C1.8722239,0.0339877177 1.67962683,0.0199201315 1.46571361,0.0199201315 L1.46571361,0.0199201315 C1.03802141,0.0199201315 0.525440451,0.0761904762 0.525440451,0.0761904762" id="Fill-51" fill="url(#linearGradient-49)" mask="url(#mask-48)"></path>
            </g>
            <g id="Group-56" transform="translate(24.430350, 24.573711)">
                <mask id="mask-51" fill="white">
                    <use xlink:href="#path-50"></use>
                </mask>
                <g id="Clip-55"></g>
                <path d="M0.0214235377,0.0119735562 L0.0214235377,1.27134468 C0.0214235377,1.75307896 0.430833249,2.14726669 0.93122588,2.14726669 L0.93122588,2.14726669 L2.31465485,2.14726669 C2.81502064,2.14726669 3.22448404,1.75307896 3.22448404,1.27134468 L3.22448404,1.27134468 L3.22448404,0.0119735562 L0.0214235377,0.0119735562 Z" id="Fill-54" fill="url(#linearGradient-52)" mask="url(#mask-51)"></path>
            </g>
            <g id="Group-59" transform="translate(26.604920, 14.774724)">
                <mask id="mask-54" fill="white">
                    <use xlink:href="#path-53"></use>
                </mask>
                <g id="Clip-58"></g>
                <path d="M0.74982382,0.0761904762 C0.485439109,0.187200913 -0.0327796235,0.515050841 0.0306855935,1.20777207 L0.0306855935,1.20777207 C0.06770697,1.82642371 0.279177154,2.19655693 1.47425081,1.82113494 L1.47425081,1.82113494 C1.72878285,1.70658076 2.84906205,1.27649921 2.70100339,0.689526494 L2.70100339,0.689526494 C2.55294473,0.10260747 2.19336219,0.0761904762 2.19336219,0.0761904762 L2.19336219,0.0761904762 C2.19336219,0.0761904762 1.68080808,0.0199201315 1.25311588,0.0199201315 L1.25311588,0.0199201315 C1.0392295,0.0199201315 0.846605591,0.0339877177 0.74982382,0.0761904762" id="Fill-57" fill="url(#linearGradient-55)" mask="url(#mask-54)"></path>
            </g>
            <g id="Group-62" transform="translate(8.778818, 10.613511)">
                <mask id="mask-57" fill="white">
                    <use xlink:href="#path-56"></use>
                </mask>
                <g id="Clip-61"></g>
                <path d="M10.410148,0.00985267962 L10.3764019,0.00985267962 L6.73979664,0.00985267962 C5.28565388,0.00985267962 3.87293533,1.17850935 3.60044297,2.60690627 L3.60044297,2.60690627 L2.87024397,6.43468573 C1.54840095,6.57753616 0.510433236,7.70495654 0.510433236,9.06314977 L0.510433236,9.06314977 L0.510433236,11.0767475 C0.510433236,11.1743616 0.515963623,11.2707406 0.526406926,11.3656968 L0.526406926,11.3656968 C0.224893453,11.4954193 0.0123494077,11.7957515 0.0123494077,12.1433874 L0.0123494077,12.1433874 L0.0123494077,12.8941508 C0.0123494077,13.359455 0.393087016,13.7401926 0.858391221,13.7401926 L0.858391221,13.7401926 L10.3764019,13.7401926 L10.410148,13.7401926 L19.9281855,13.7401926 C20.3934897,13.7401926 20.7742005,13.359455 20.7742005,12.8941508 L20.7742005,12.8941508 L20.7742005,12.1433874 C20.7742005,11.7957515 20.5616564,11.4954193 20.260143,11.3656968 L20.260143,11.3656968 C20.2705863,11.2707406 20.2761435,11.1743616 20.2761435,11.0767475 L20.2761435,11.0767475 L20.2761435,9.06314977 C20.2761435,7.70495654 19.2381758,6.57753616 17.9163059,6.43468573 L17.9163059,6.43468573 L17.1860801,2.60690627 C16.9135877,1.17850935 15.5008692,0.00985267962 14.0467801,0.00985267962 L14.0467801,0.00985267962 L10.410148,0.00985267962 Z M4.63929662,2.80506057 C4.72380952,2.36193161 5.00151012,1.91815833 5.40112084,1.5875969 L5.40112084,1.5875969 C5.80075841,1.25698178 6.2886674,1.06739152 6.73979664,1.06739152 L6.73979664,1.06739152 L10.3764019,1.06739152 L10.410148,1.06739152 L14.0467801,1.06739152 C14.4979093,1.06739152 14.9858183,1.25698178 15.3854559,1.5875969 L15.3854559,1.5875969 C15.7850398,1.91815833 16.0627404,2.36193161 16.1472801,2.80506057 L16.1472801,2.80506057 L16.8367529,6.41927581 L10.410148,6.41927581 L10.3764019,6.41927581 L3.94979697,6.41927581 L4.63929662,2.80506057 Z M15.2710628,8.91707775 C15.2710628,8.08188194 15.9481325,7.4047854 16.7833551,7.4047854 L16.7833551,7.4047854 C17.6186047,7.4047854 18.2956744,8.08188194 18.2956744,8.91707775 L18.2956744,8.91707775 C18.2956744,9.75227357 17.6186047,10.429397 16.7833551,10.429397 L16.7833551,10.429397 C15.9481325,10.429397 15.2710628,9.75227357 15.2710628,8.91707775 L15.2710628,8.91707775 Z M2.49090238,8.91707775 C2.49090238,8.08188194 3.16797208,7.4047854 4.00319474,7.4047854 L4.00319474,7.4047854 C4.8384174,7.4047854 5.5154871,8.08188194 5.5154871,8.91707775 L5.5154871,8.91707775 C5.5154871,9.75227357 4.8384174,10.429397 4.00319474,10.429397 L4.00319474,10.429397 C3.16797208,10.429397 2.49090238,9.75227357 2.49090238,8.91707775 L2.49090238,8.91707775 Z M6.95376355,9.50265445 L6.95376355,9.4018457 C6.95376355,9.2273432 7.09653344,9.08457331 7.27100909,9.08457331 L7.27100909,9.08457331 L10.3764019,9.08457331 L10.410148,9.08457331 L13.5155139,9.08457331 C13.6900701,9.08457331 13.8328132,9.2273432 13.8328132,9.4018457 L13.8328132,9.4018457 L13.8328132,9.50265445 C13.8328132,9.67715695 13.6900701,9.81992684 13.5155139,9.81992684 L13.5155139,9.81992684 L10.410148,9.81992684 L10.3764019,9.81992684 L7.27100909,9.81992684 C7.09653344,9.81992684 6.95376355,9.67715695 6.95376355,9.50265445 L6.95376355,9.50265445 Z M6.95376355,11.0216048 L6.95376355,10.920796 C6.95376355,10.7462935 7.09653344,10.6035236 7.27100909,10.6035236 L7.27100909,10.6035236 L10.3764019,10.6035236 L10.410148,10.6035236 L13.5155139,10.6035236 C13.6900701,10.6035236 13.8328132,10.7462935 13.8328132,10.920796 L13.8328132,10.920796 L13.8328132,11.0216048 C13.8328132,11.1961073 13.6900701,11.3388771 13.5155139,11.3388771 L13.5155139,11.3388771 L10.410148,11.3388771 L10.3764019,11.3388771 L7.27100909,11.3388771 C7.09653344,11.3388771 6.95376355,11.1961073 6.95376355,11.0216048 L6.95376355,11.0216048 Z" id="Fill-60" fill="url(#linearGradient-58)" mask="url(#mask-57)"></path>
            </g>
        </g>
    </g>
</svg>