<?xml version="1.0" encoding="UTF-8"?>
<svg width="29px" height="48px" viewBox="0 0 29 48" version="1.1" xmlns="http://www.w3.org/2000/svg" xmlns:xlink="http://www.w3.org/1999/xlink">
    <!-- Generator: Sketch 56.3 (81716) - https://sketch.com -->
    <title>pin</title>
    <desc>Created with Sketch.</desc>
    <defs>
        <path d="M0.0125843149,2.94603846 C0.0125843149,4.56657606 4.01061109,5.87939193 8.94239404,5.87939193 L8.94239404,5.87939193 C13.8741166,5.87939193 17.8721232,4.56657606 17.8721232,2.94603846 L17.8721232,2.94603846 C17.8721232,1.32602436 13.8741166,0.0125843149 8.94239404,0.0125843149 L8.94239404,0.0125843149 C4.01061109,0.0125843149 0.0125843149,1.32602436 0.0125843149,2.94603846" id="path-1"></path>
        <linearGradient x1="50%" y1="0%" x2="50%" y2="167.291244%" id="linearGradient-3">
            <stop stop-color="#FFFFFF" stop-opacity="0" offset="0%"></stop>
            <stop stop-color="#000000" stop-opacity="0.5" offset="100%"></stop>
        </linearGradient>
        <path d="M14.2784859,0.0132084969 C12.1263868,0.0132084969 10.1115272,0.409503675 8.28978154,1.19103997 L8.28978154,1.19103997 C6.57239505,1.9277761 5.05967986,2.99029498 3.7935971,4.34909896 L3.7935971,4.34909896 C2.57593879,5.65585422 1.62768549,7.18981174 0.975213933,8.90836605 L0.975213933,8.90836605 C0.328078123,10.6127857 0,12.4239001 0,14.2914125 L0,14.2914125 C0,17.1361321 0.701097352,20.3813148 2.0838216,23.9368167 L2.0838216,23.9368167 C3.21143663,26.8363234 4.76977751,29.8976946 6.71551394,33.0359609 L6.71551394,33.0359609 C8.7221786,36.2725058 10.5801067,38.6760093 11.5089902,39.8206785 L11.5089902,39.8206785 C12.1572133,40.6195107 12.7523205,41.3010369 13.2299406,41.7915031 L13.2299406,41.7915031 C13.9338568,42.5144267 14.1339172,42.5749522 14.2784859,42.5749522 L14.2784859,42.5749522 C14.4230142,42.5749522 14.6231149,42.5144267 15.327011,41.7915031 L15.327011,41.7915031 C15.8045908,41.3010369 16.3996778,40.6195107 17.0479009,39.8206785 L17.0479009,39.8206785 C17.9767845,38.6760093 19.8346723,36.2725058 21.8412967,33.0359609 L21.8412967,33.0359609 C23.7869727,29.8976946 25.3452532,26.8363234 26.4728481,23.9368167 L26.4728481,23.9368167 C27.8555723,20.3813148 28.5566697,17.1361321 28.5566697,14.2914125 L28.5566697,14.2914125 C28.5566697,12.4295178 28.2285513,10.6218061 27.5814759,8.91851404 L27.5814759,8.91851404 C26.9287627,7.20050337 25.9806302,5.66620356 24.7633142,4.35826034 L24.7633142,4.35826034 C23.4967281,2.99732206 21.9840733,1.9329105 20.2673714,1.19452331 L20.2673714,1.19452331 C18.444921,0.410671499 16.4299607,0.0132084969 14.2784859,0.0132084969 Z" id="path-4"></path>
        <linearGradient x1="33.1150291%" y1="-1.5542295%" x2="68.1007325%" y2="80.4289167%" id="linearGradient-6">
            <stop stop-color="#F5A1A6" offset="0%"></stop>
            <stop stop-color="#780001" offset="100%"></stop>
        </linearGradient>
        <path d="M0.0109936575,14.0095238 C0.0109936575,26.264029 13.1413068,42.0203363 14.0167321,42.0203363 L14.0167321,42.0203363 C14.8921776,42.0203363 28.0221484,26.264029 28.0221484,14.0095238 L28.0221484,14.0095238 C28.0221484,6.6905668 22.7699789,0.00406725058 14.0167321,0.00406725058 L14.0167321,0.00406725058 C5.26346522,0.00406725058 0.0109936575,6.66634451 0.0109936575,14.0095238" id="path-7"></path>
        <linearGradient x1="32.2502239%" y1="8.23080211%" x2="70.5174133%" y2="78.1492008%" id="linearGradient-9">
            <stop stop-color="#ED3027" offset="0%"></stop>
            <stop stop-color="#8F0B0E" offset="100%"></stop>
        </linearGradient>
        <path d="M0.00398671096,11.4220074 C0.00398671096,17.7284607 5.11637974,22.8413168 11.4232558,22.8413168 L11.4232558,22.8413168 C17.7297091,22.8413168 22.8421424,17.7284607 22.8421424,11.4220074 L22.8421424,11.4220074 C22.8421424,5.11515152 17.7297091,0.00229537904 11.4232558,0.00229537904 L11.4232558,0.00229537904 C5.11637974,0.00229537904 0.00398671096,5.11515152 0.00398671096,11.4220074" id="path-10"></path>
        <linearGradient x1="97.5902641%" y1="94.0599283%" x2="6.19383268%" y2="9.44343613%" id="linearGradient-12">
            <stop stop-color="#ED3027" offset="0%"></stop>
            <stop stop-color="#AF241B" offset="100%"></stop>
        </linearGradient>
        <path d="M0.0113359509,10.7719521 C0.0113359509,16.7144267 4.82859156,21.5312796 10.7710057,21.5312796 L10.7710057,21.5312796 C16.7131179,21.5312796 21.5300312,16.7144267 21.5300312,10.7719521 L21.5300312,10.7719521 C21.5300312,4.82967885 16.7131179,0.0124433706 10.7710057,0.0124433706 L10.7710057,0.0124433706 C4.82859156,0.0124433706 0.0113359509,4.82967885 0.0113359509,10.7719521" id="path-13"></path>
        <radialGradient cx="19.5712649%" cy="28.8966167%" fx="19.5712649%" fy="28.8966167%" r="82.0411104%" gradientTransform="translate(0.195713,0.288966),scale(1.000000,0.999993),rotate(180.000000),translate(-0.195713,-0.288966)" id="radialGradient-15">
            <stop stop-color="#8E97A4" offset="0%"></stop>
            <stop stop-color="#8692A1" offset="100%"></stop>
        </radialGradient>
        <path d="M0.000684586731,10.6655794 C0.000684586731,16.5540119 4.77408638,21.327011 10.6623779,21.327011 L10.6623779,21.327011 C16.5505084,21.327011 21.3236283,16.5540119 21.3236283,10.6655794 L21.3236283,10.6655794 C21.3236283,4.77730796 16.5505084,0.00394644116 10.6623779,0.00394644116 L10.6623779,0.00394644116 C4.77408638,0.00394644116 0.000684586731,4.77730796 0.000684586731,10.6655794" id="path-16"></path>
        <radialGradient cx="19.5712405%" cy="28.8965869%" fx="19.5712405%" fy="28.8965869%" r="82.0410262%" gradientTransform="translate(0.195712,0.288966),scale(1.000000,0.999994),rotate(180.000000),translate(-0.195712,-0.288966)" id="radialGradient-18">
            <stop stop-color="#9AA2AD" offset="0%"></stop>
            <stop stop-color="#8A97A6" offset="100%"></stop>
        </radialGradient>
        <path d="M0.0101479915,10.5793215 C0.0101479915,16.4136917 4.7397161,21.1428974 10.5739052,21.1428974 L10.5739052,21.1428974 C16.408054,21.1428974 21.1373603,16.4136917 21.1373603,10.5793215 L21.1373603,10.5793215 C21.1373603,4.74509212 16.408054,0.0155844156 10.5739052,0.0155844156 L10.5739052,0.0155844156 C4.7397161,0.0155844156 0.0101479915,4.74509212 0.0101479915,10.5793215" id="path-19"></path>
        <radialGradient cx="19.5712953%" cy="28.8966105%" fx="19.5712953%" fy="28.8966105%" r="82.0408739%" id="radialGradient-21">
            <stop stop-color="#A6ACB6" offset="0%"></stop>
            <stop stop-color="#8F9CAA" offset="100%"></stop>
        </radialGradient>
        <path d="M0.0196315313,10.4729286 C0.0196315313,16.253277 4.70532568,20.9385885 10.4854123,20.9385885 L10.4854123,20.9385885 C16.2655995,20.9385885 20.9510923,16.253277 20.9510923,10.4729286 L20.9510923,10.4729286 C20.9510923,4.69272123 16.2655995,0.00710762106 10.4854123,0.00710762106 L10.4854123,0.00710762106 C4.70532568,0.00710762106 0.0196315313,4.69272123 0.0196315313,10.4729286" id="path-22"></path>
        <radialGradient cx="19.5712737%" cy="28.8965085%" fx="19.5712737%" fy="28.8965085%" r="82.0406508%" id="radialGradient-24">
            <stop stop-color="#B3B8C1" offset="0%"></stop>
            <stop stop-color="#94A0B0" offset="100%"></stop>
        </radialGradient>
        <path d="M0.00896003222,10.3866908 C0.00896003222,16.1129769 4.65084063,20.7544548 10.3767643,20.7544548 L10.3767643,20.7544548 C16.1030102,20.7544548 20.7446894,16.1129769 20.7446894,10.3866908 L20.7446894,10.3866908 C20.7446894,4.66048525 16.1030102,0.0187254606 10.3767643,0.0187254606 L10.3767643,0.0187254606 C4.65084063,0.0187254606 0.00896003222,4.66048525 0.00896003222,10.3866908" id="path-25"></path>
        <radialGradient cx="19.5713298%" cy="28.8966289%" fx="19.5713298%" fy="28.8966289%" r="82.040492%" id="radialGradient-27">
            <stop stop-color="#C0C3CB" offset="0%"></stop>
            <stop stop-color="#98A5B5" offset="100%"></stop>
        </radialGradient>
        <path d="M0.0184435719,10.280298 C0.0184435719,15.952542 4.61647035,20.5501661 10.2883117,20.5501661 L10.2883117,20.5501661 C15.9605356,20.5501661 20.5584214,15.952542 20.5584214,10.280298 L20.5584214,10.280298 C20.5584214,4.60811437 15.9605356,0.0102486661 10.2883117,0.0102486661 L10.2883117,0.0102486661 C4.61647035,0.0102486661 0.0184435719,4.60811437 0.0184435719,10.280298" id="path-28"></path>
        <radialGradient cx="19.5713051%" cy="28.8965447%" fx="19.5713051%" fy="28.8965447%" r="82.040646%" id="radialGradient-30">
            <stop stop-color="#CED0D6" offset="0%"></stop>
            <stop stop-color="#9CABBB" offset="100%"></stop>
        </radialGradient>
        <path d="M0.00779220779,10.1739052 C0.00779220779,15.7921273 4.56196517,20.3458572 10.1796637,20.3458572 L10.1796637,20.3458572 C15.7979664,20.3458572 20.3520185,15.7921273 20.3520185,10.1739052 L20.3520185,10.1739052 C20.3520185,4.55574348 15.7979664,0.00175173664 10.1796637,0.00175173664 L10.1796637,0.00175173664 C4.56196517,0.00175173664 0.00779220779,4.55574348 0.00779220779,10.1739052" id="path-31"></path>
        <radialGradient cx="19.57128%" cy="28.8965821%" fx="19.57128%" fy="28.8965821%" r="82.0405854%" id="radialGradient-33">
            <stop stop-color="#DDDEE1" offset="0%"></stop>
            <stop stop-color="#A1B0C1" offset="100%"></stop>
        </radialGradient>
        <path d="M0.0172556126,10.0876472 C0.0172556126,15.6518071 4.52761502,20.1617235 10.0912111,20.1617235 L10.0912111,20.1617235 C15.6554717,20.1617235 20.1657505,15.6518071 20.1657505,10.0876472 L20.1657505,10.0876472 C20.1657505,4.5235075 15.6554717,0.0133897111 10.0912111,0.0133897111 L10.0912111,0.0133897111 C4.52761502,0.0133897111 0.0172556126,4.5235075 0.0172556126,10.0876472" id="path-34"></path>
        <radialGradient cx="19.5713378%" cy="28.8965258%" fx="19.5713378%" fy="28.8965258%" r="82.0407012%" id="radialGradient-36">
            <stop stop-color="#ECEDEE" offset="0%"></stop>
            <stop stop-color="#A7B6C7" offset="100%"></stop>
        </radialGradient>
        <path d="M0.00660424846,9.9812544 C0.00660424846,15.4913722 4.47306957,19.9574549 9.98256317,19.9574549 L9.98256317,19.9574549 C15.4928823,19.9574549 19.9593476,15.4913722 19.9593476,9.9812544 L19.9593476,9.9812544 C19.9593476,4.47115675 15.4928823,0.00487264673 9.98256317,0.00487264673 L9.98256317,0.00487264673 C4.47306957,0.00487264673 0.00660424846,4.47115675 0.00660424846,9.9812544" id="path-37"></path>
        <radialGradient cx="19.5713217%" cy="28.8966264%" fx="19.5713217%" fy="28.8966264%" r="82.0405394%" id="radialGradient-39">
            <stop stop-color="#FEFEFE" offset="0%"></stop>
            <stop stop-color="#B6B8BA" offset="100%"></stop>
        </radialGradient>
        <path d="M0.0450820497,15.176563 C0.461189973,7.33065539 5.25329709,-1.14613913 18.233585,0.605597503 L18.233585,0.605597503 C16.4902044,0.203100775 14.8959025,0.0199134199 13.4405517,0.0199134199 L13.4405517,0.0199134199 C2.88360012,0.0199134199 -0.350125843,9.66147186 0.0450820497,15.176563" id="path-40"></path>
        <path d="M0.0067653277,7.43811537 C8.20561764,7.31788986 10.8115574,-0.0222490688 10.6822914,0.00749018423" id="path-42"></path>
        <path d="M0.00334239404,0.00898016712 L0.00334239404,0.953508507 C0.00334239404,1.31480922 0.310419813,1.61045002 0.685694151,1.61045002 L0.685694151,1.61045002 L1.72328602,1.61045002 C2.09856035,1.61045002 2.40563777,1.31480922 2.40563777,0.953508507 L2.40563777,0.953508507 L2.40563777,0.00898016712 L0.00334239404,0.00898016712 Z" id="path-44"></path>
        <linearGradient x1="-174.63269%" y1="-116.328037%" x2="295.5298%" y2="219.99254%" id="linearGradient-46">
            <stop stop-color="#ED3027" offset="0%"></stop>
            <stop stop-color="#AF241B" offset="100%"></stop>
        </linearGradient>
        <path d="M0.394080338,0.0571428571 C0.394080338,0.0571428571 0.124413571,0.0769556025 0.0133695762,0.517144871 L0.0133695762,0.517144871 C-0.0976744186,0.957374409 0.742534984,1.27993557 0.933454143,1.3658512 L0.933454143,1.3658512 C1.82971912,1.6474177 1.98836203,1.36981778 2.01610792,0.905829055 L2.01610792,0.905829055 C2.06370684,0.38628813 1.67504279,0.140400685 1.47675425,0.0571428571 L1.47675425,0.0571428571 C1.40416793,0.0254907883 1.25972012,0.0149400987 1.09928521,0.0149400987 L1.09928521,0.0149400987 C0.778516058,0.0149400987 0.394080338,0.0571428571 0.394080338,0.0571428571" id="path-47"></path>
        <linearGradient x1="-3.15696411%" y1="4.33273681%" x2="556.874476%" y2="440.579981%" id="linearGradient-49">
            <stop stop-color="#ED3027" offset="0%"></stop>
            <stop stop-color="#AF241B" offset="100%"></stop>
        </linearGradient>
        <path d="M0.0160676533,0.00898016712 L0.0160676533,0.953508507 C0.0160676533,1.31480922 0.323124937,1.61045002 0.69841941,1.61045002 L0.69841941,1.61045002 L1.73599114,1.61045002 C2.11126548,1.61045002 2.41836303,1.31480922 2.41836303,0.953508507 L2.41836303,0.953508507 L2.41836303,0.00898016712 L0.0160676533,0.00898016712 Z" id="path-50"></path>
        <linearGradient x1="-374.345272%" y1="-259.187783%" x2="95.816451%" y2="77.1322483%" id="linearGradient-52">
            <stop stop-color="#ED3027" offset="0%"></stop>
            <stop stop-color="#AF241B" offset="100%"></stop>
        </linearGradient>
        <path d="M0.562367865,0.0571428571 C0.364079332,0.140400685 -0.0245847176,0.38628813 0.0230141951,0.905829055 L0.0230141951,0.905829055 C0.0507802275,1.36981778 0.209382865,1.6474177 1.10568811,1.3658512 L1.10568811,1.3658512 C1.29658713,1.27993557 2.13679654,0.957374409 2.02575254,0.517144871 L2.02575254,0.517144871 C1.91470855,0.0769556025 1.64502165,0.0571428571 1.64502165,0.0571428571 L1.64502165,0.0571428571 C1.64502165,0.0571428571 1.26060606,0.0149400987 0.939836907,0.0149400987 L0.939836907,0.0149400987 C0.779422128,0.0149400987 0.634954193,0.0254907883 0.562367865,0.0571428571" id="path-53"></path>
        <linearGradient x1="-311.34648%" y1="-230.094547%" x2="248.682217%" y2="206.150572%" id="linearGradient-55">
            <stop stop-color="#ED3027" offset="0%"></stop>
            <stop stop-color="#AF241B" offset="100%"></stop>
        </linearGradient>
        <path d="M7.80761099,0.00738950972 L7.78230142,0.00738950972 L5.05484748,0.00738950972 C3.96424041,0.00738950972 2.9047015,0.883882009 2.70033223,1.9551797 L2.70033223,1.9551797 L2.15268298,4.8260143 C1.16130071,4.93315212 0.382824927,5.77871741 0.382824927,6.79736233 L0.382824927,6.79736233 L0.382824927,8.30756066 C0.382824927,8.38077117 0.386972717,8.45305547 0.394805195,8.52427263 L0.394805195,8.52427263 C0.16867009,8.62156448 0.00926205577,8.84681365 0.00926205577,9.10754052 L0.00926205577,9.10754052 L0.00926205577,9.67061311 C0.00926205577,10.0195913 0.294815262,10.3051445 0.643793416,10.3051445 L0.643793416,10.3051445 L7.78230142,10.3051445 L7.80761099,10.3051445 L14.9461391,10.3051445 C15.2951173,10.3051445 15.5806504,10.0195913 15.5806504,9.67061311 L15.5806504,9.67061311 L15.5806504,9.10754052 C15.5806504,8.84681365 15.4212423,8.62156448 15.1951072,8.52427263 L15.1951072,8.52427263 C15.2029397,8.45305547 15.2071076,8.38077117 15.2071076,8.30756066 L15.2071076,8.30756066 L15.2071076,6.79736233 C15.2071076,5.77871741 14.4286318,4.93315212 13.4372294,4.8260143 L13.4372294,4.8260143 L12.8895601,1.9551797 C12.6851908,0.883882009 11.6256519,0.00738950972 10.5350851,0.00738950972 L10.5350851,0.00738950972 L7.80761099,0.00738950972 Z M3.47947247,2.10379543 C3.54285714,1.77144871 3.75113259,1.43861875 4.05084063,1.19069767 L4.05084063,1.19069767 C4.35056881,0.942736333 4.71650055,0.800543642 5.05484748,0.800543642 L5.05484748,0.800543642 L7.78230142,0.800543642 L7.80761099,0.800543642 L10.5350851,0.800543642 C10.873432,0.800543642 11.2393637,0.942736333 11.5390919,1.19069767 L11.5390919,1.19069767 C11.8387798,1.43861875 12.0470553,1.77144871 12.1104601,2.10379543 L12.1104601,2.10379543 L12.6275647,4.81445686 L7.80761099,4.81445686 L7.78230142,4.81445686 L2.96234773,4.81445686 L3.47947247,2.10379543 Z M11.4532971,6.68780832 C11.4532971,6.06141146 11.9610994,5.55358905 12.5875164,5.55358905 L12.5875164,5.55358905 C13.2139535,5.55358905 13.7217558,6.06141146 13.7217558,6.68780832 L13.7217558,6.68780832 C13.7217558,7.31420517 13.2139535,7.82204772 12.5875164,7.82204772 L12.5875164,7.82204772 C11.9610994,7.82204772 11.4532971,7.31420517 11.4532971,6.68780832 L11.4532971,6.68780832 Z M1.86817678,6.68780832 C1.86817678,6.06141146 2.37597906,5.55358905 3.00239605,5.55358905 L3.00239605,5.55358905 C3.62881305,5.55358905 4.13661532,6.06141146 4.13661532,6.68780832 L4.13661532,6.68780832 C4.13661532,7.31420517 3.62881305,7.82204772 3.00239605,7.82204772 L3.00239605,7.82204772 C2.37597906,7.82204772 1.86817678,7.31420517 1.86817678,6.68780832 L1.86817678,6.68780832 Z M5.21532266,7.12699084 L5.21532266,7.05138427 C5.21532266,6.9205074 5.32240008,6.81342998 5.45325682,6.81342998 L5.45325682,6.81342998 L7.78230142,6.81342998 L7.80761099,6.81342998 L10.1366355,6.81342998 C10.2675526,6.81342998 10.3746099,6.9205074 10.3746099,7.05138427 L10.3746099,7.05138427 L10.3746099,7.12699084 C10.3746099,7.25786771 10.2675526,7.36494513 10.1366355,7.36494513 L10.1366355,7.36494513 L7.80761099,7.36494513 L7.78230142,7.36494513 L5.45325682,7.36494513 C5.32240008,7.36494513 5.21532266,7.25786771 5.21532266,7.12699084 L5.21532266,7.12699084 Z M5.21532266,8.26620356 L5.21532266,8.190597 C5.21532266,8.05972012 5.32240008,7.95264271 5.45325682,7.95264271 L5.45325682,7.95264271 L7.78230142,7.95264271 L7.80761099,7.95264271 L10.1366355,7.95264271 C10.2675526,7.95264271 10.3746099,8.05972012 10.3746099,8.190597 L10.3746099,8.190597 L10.3746099,8.26620356 C10.3746099,8.39708044 10.2675526,8.50415786 10.1366355,8.50415786 L10.1366355,8.50415786 L7.80761099,8.50415786 L7.78230142,8.50415786 L5.45325682,8.50415786 C5.32240008,8.50415786 5.21532266,8.39708044 5.21532266,8.26620356 L5.21532266,8.26620356 Z" id="path-56"></path>
        <linearGradient x1="12.5789694%" y1="31.8291268%" x2="85.1140642%" y2="83.3017699%" id="linearGradient-58">
            <stop stop-color="#ED3027" offset="0%"></stop>
            <stop stop-color="#AF241B" offset="100%"></stop>
        </linearGradient>
    </defs>
    <g id="Page-1" stroke="none" stroke-width="1" fill="none" fill-rule="evenodd">
        <g id="pin">
            <g id="Group-3" transform="translate(5.335750, 41.464613)">
                <mask id="mask-2" fill="white">
                    <use xlink:href="#path-1"></use>
                </mask>
                <g id="Clip-2"></g>
                <path d="M0.0125843149,2.94603846 C0.0125843149,4.56657606 4.01061109,5.87939193 8.94239404,5.87939193 L8.94239404,5.87939193 C13.8741166,5.87939193 17.8721232,4.56657606 17.8721232,2.94603846 L17.8721232,2.94603846 C17.8721232,1.32602436 13.8741166,0.0125843149 8.94239404,0.0125843149 L8.94239404,0.0125843149 C4.01061109,0.0125843149 0.0125843149,1.32602436 0.0125843149,2.94603846" id="Fill-1" fill="url(#linearGradient-3)" mask="url(#mask-2)"></path>
            </g>
            <g id="Group-6" transform="translate(0.000000, 0.006846)">
                <mask id="mask-5" fill="white">
                    <use xlink:href="#path-4"></use>
                </mask>
                <g id="Clip-5"></g>
                <path d="M14.2784859,0.0132084969 C12.1263868,0.0132084969 10.1115272,0.409503675 8.28978154,1.19103997 L8.28978154,1.19103997 C6.57239505,1.9277761 5.05967986,2.99029498 3.7935971,4.34909896 L3.7935971,4.34909896 C2.57593879,5.65585422 1.62768549,7.18981174 0.975213933,8.90836605 L0.975213933,8.90836605 C0.328078123,10.6127857 0,12.4239001 0,14.2914125 L0,14.2914125 C0,17.1361321 0.701097352,20.3813148 2.0838216,23.9368167 L2.0838216,23.9368167 C3.21143663,26.8363234 4.76977751,29.8976946 6.71551394,33.0359609 L6.71551394,33.0359609 C8.7221786,36.2725058 10.5801067,38.6760093 11.5089902,39.8206785 L11.5089902,39.8206785 C12.1572133,40.6195107 12.7523205,41.3010369 13.2299406,41.7915031 L13.2299406,41.7915031 C13.9338568,42.5144267 14.1339172,42.5749522 14.2784859,42.5749522 L14.2784859,42.5749522 C14.4230142,42.5749522 14.6231149,42.5144267 15.327011,41.7915031 L15.327011,41.7915031 C15.8045908,41.3010369 16.3996778,40.6195107 17.0479009,39.8206785 L17.0479009,39.8206785 C17.9767845,38.6760093 19.8346723,36.2725058 21.8412967,33.0359609 L21.8412967,33.0359609 C23.7869727,29.8976946 25.3452532,26.8363234 26.4728481,23.9368167 L26.4728481,23.9368167 C27.8555723,20.3813148 28.5566697,17.1361321 28.5566697,14.2914125 L28.5566697,14.2914125 C28.5566697,12.4295178 28.2285513,10.6218061 27.5814759,8.91851404 L27.5814759,8.91851404 C26.9287627,7.20050337 25.9806302,5.66620356 24.7633142,4.35826034 L24.7633142,4.35826034 C23.4967281,2.99732206 21.9840733,1.9329105 20.2673714,1.19452331 L20.2673714,1.19452331 C18.444921,0.410671499 16.4299607,0.0132084969 14.2784859,0.0132084969 Z" id="Fill-4" fill="url(#linearGradient-6)" mask="url(#mask-5)"></path>
            </g>
            <g id="Group-9" transform="translate(0.261754, 0.288735)">
                <mask id="mask-8" fill="white">
                    <use xlink:href="#path-7"></use>
                </mask>
                <g id="Clip-8"></g>
                <path d="M0.0109936575,14.0095238 C0.0109936575,26.264029 13.1413068,42.0203363 14.0167321,42.0203363 L14.0167321,42.0203363 C14.8921776,42.0203363 28.0221484,26.264029 28.0221484,14.0095238 L28.0221484,14.0095238 C28.0221484,6.6905668 22.7699789,0.00406725058 14.0167321,0.00406725058 L14.0167321,0.00406725058 C5.26346522,0.00406725058 0.0109936575,6.66634451 0.0109936575,14.0095238" id="Fill-7" fill="url(#linearGradient-9)" mask="url(#mask-8)"></path>
            </g>
            <g id="Group-12" transform="translate(2.879291, 2.765328)">
                <mask id="mask-11" fill="white">
                    <use xlink:href="#path-10"></use>
                </mask>
                <g id="Clip-11"></g>
                <path d="M0.00398671096,11.4220074 C0.00398671096,17.7284607 5.11637974,22.8413168 11.4232558,22.8413168 L11.4232558,22.8413168 C17.7297091,22.8413168 22.8421424,17.7284607 22.8421424,11.4220074 L22.8421424,11.4220074 C22.8421424,5.11515152 17.7297091,0.00229537904 11.4232558,0.00229537904 L11.4232558,0.00229537904 C5.11637974,0.00229537904 0.00398671096,5.11515152 0.00398671096,11.4220074" id="Fill-10" fill="url(#linearGradient-12)" mask="url(#mask-11)"></path>
            </g>
            <path d="M3.44491694,14.1873231 C3.44491694,20.1838196 8.30604651,25.0445666 14.302543,25.0445666 C20.2986369,25.0445666 25.1593637,20.1838196 25.1593637,14.1873231 C25.1593637,8.19100775 20.2986369,3.32991845 14.302543,3.32991845 C8.30604651,3.32991845 3.44491694,8.19100775 3.44491694,14.1873231" id="Fill-13" fill="#828E9C"></path>
            <g id="Group-17" transform="translate(3.584013, 3.470049)">
                <mask id="mask-14" fill="white">
                    <use xlink:href="#path-13"></use>
                </mask>
                <g id="Clip-16"></g>
                <path d="M0.0113359509,10.7719521 C0.0113359509,16.7144267 4.82859156,21.5312796 10.7710057,21.5312796 L10.7710057,21.5312796 C16.7131179,21.5312796 21.5300312,16.7144267 21.5300312,10.7719521 L21.5300312,10.7719521 C21.5300312,4.82967885 16.7131179,0.0124433706 10.7710057,0.0124433706 L10.7710057,0.0124433706 C4.82859156,0.0124433706 0.0113359509,4.82967885 0.0113359509,10.7719521" id="Fill-15" fill="url(#radialGradient-15)" mask="url(#mask-14)"></path>
            </g>
            <g id="Group-20" transform="translate(3.745092, 3.631129)">
                <mask id="mask-17" fill="white">
                    <use xlink:href="#path-16"></use>
                </mask>
                <g id="Clip-19"></g>
                <path d="M0.000684586731,10.6655794 C0.000684586731,16.5540119 4.77408638,21.327011 10.6623779,21.327011 L10.6623779,21.327011 C16.5505084,21.327011 21.3236283,16.5540119 21.3236283,10.6655794 L21.3236283,10.6655794 C21.3236283,4.77730796 16.5505084,0.00394644116 10.6623779,0.00394644116 L10.6623779,0.00394644116 C4.77408638,0.00394644116 0.000684586731,4.77730796 0.000684586731,10.6655794" id="Fill-18" fill="url(#radialGradient-18)" mask="url(#mask-17)"></path>
            </g>
            <g id="Group-23" transform="translate(3.886036, 3.772073)">
                <mask id="mask-20" fill="white">
                    <use xlink:href="#path-19"></use>
                </mask>
                <g id="Clip-22"></g>
                <path d="M0.0101479915,10.5793215 C0.0101479915,16.4136917 4.7397161,21.1428974 10.5739052,21.1428974 L10.5739052,21.1428974 C16.408054,21.1428974 21.1373603,16.4136917 21.1373603,10.5793215 L21.1373603,10.5793215 C21.1373603,4.74509212 16.408054,0.0155844156 10.5739052,0.0155844156 L10.5739052,0.0155844156 C4.7397161,0.0155844156 0.0101479915,4.74509212 0.0101479915,10.5793215" id="Fill-21" fill="url(#radialGradient-21)" mask="url(#mask-20)"></path>
            </g>
            <g id="Group-26" transform="translate(4.026981, 3.933152)">
                <mask id="mask-23" fill="white">
                    <use xlink:href="#path-22"></use>
                </mask>
                <g id="Clip-25"></g>
                <path d="M0.0196315313,10.4729286 C0.0196315313,16.253277 4.70532568,20.9385885 10.4854123,20.9385885 L10.4854123,20.9385885 C16.2655995,20.9385885 20.9510923,16.253277 20.9510923,10.4729286 L20.9510923,10.4729286 C20.9510923,4.69272123 16.2655995,0.00710762106 10.4854123,0.00710762106 L10.4854123,0.00710762106 C4.70532568,0.00710762106 0.0196315313,4.69272123 0.0196315313,10.4729286" id="Fill-24" fill="url(#radialGradient-24)" mask="url(#mask-23)"></path>
            </g>
            <g id="Group-29" transform="translate(4.188060, 4.074096)">
                <mask id="mask-26" fill="white">
                    <use xlink:href="#path-25"></use>
                </mask>
                <g id="Clip-28"></g>
                <path d="M0.00896003222,10.3866908 C0.00896003222,16.1129769 4.65084063,20.7544548 10.3767643,20.7544548 L10.3767643,20.7544548 C16.1030102,20.7544548 20.7446894,16.1129769 20.7446894,10.3866908 L20.7446894,10.3866908 C20.7446894,4.66048525 16.1030102,0.0187254606 10.3767643,0.0187254606 L10.3767643,0.0187254606 C4.65084063,0.0187254606 0.00896003222,4.66048525 0.00896003222,10.3866908" id="Fill-27" fill="url(#radialGradient-27)" mask="url(#mask-26)"></path>
            </g>
            <g id="Group-32" transform="translate(4.329004, 4.235176)">
                <mask id="mask-29" fill="white">
                    <use xlink:href="#path-28"></use>
                </mask>
                <g id="Clip-31"></g>
                <path d="M0.0184435719,10.280298 C0.0184435719,15.952542 4.61647035,20.5501661 10.2883117,20.5501661 L10.2883117,20.5501661 C15.9605356,20.5501661 20.5584214,15.952542 20.5584214,10.280298 L20.5584214,10.280298 C20.5584214,4.60811437 15.9605356,0.0102486661 10.2883117,0.0102486661 L10.2883117,0.0102486661 C4.61647035,0.0102486661 0.0184435719,4.60811437 0.0184435719,10.280298" id="Fill-30" fill="url(#radialGradient-30)" mask="url(#mask-29)"></path>
            </g>
            <g id="Group-35" transform="translate(4.490084, 4.396255)">
                <mask id="mask-32" fill="white">
                    <use xlink:href="#path-31"></use>
                </mask>
                <g id="Clip-34"></g>
                <path d="M0.00779220779,10.1739052 C0.00779220779,15.7921273 4.56196517,20.3458572 10.1796637,20.3458572 L10.1796637,20.3458572 C15.7979664,20.3458572 20.3520185,15.7921273 20.3520185,10.1739052 L20.3520185,10.1739052 C20.3520185,4.55574348 15.7979664,0.00175173664 10.1796637,0.00175173664 L10.1796637,0.00175173664 C4.56196517,0.00175173664 0.00779220779,4.55574348 0.00779220779,10.1739052" id="Fill-33" fill="url(#radialGradient-33)" mask="url(#mask-32)"></path>
            </g>
            <g id="Group-38" transform="translate(4.631028, 4.537199)">
                <mask id="mask-35" fill="white">
                    <use xlink:href="#path-34"></use>
                </mask>
                <g id="Clip-37"></g>
                <path d="M0.0172556126,10.0876472 C0.0172556126,15.6518071 4.52761502,20.1617235 10.0912111,20.1617235 L10.0912111,20.1617235 C15.6554717,20.1617235 20.1657505,15.6518071 20.1657505,10.0876472 L20.1657505,10.0876472 C20.1657505,4.5235075 15.6554717,0.0133897111 10.0912111,0.0133897111 L10.0912111,0.0133897111 C4.52761502,0.0133897111 0.0172556126,4.5235075 0.0172556126,10.0876472" id="Fill-36" fill="url(#radialGradient-36)" mask="url(#mask-35)"></path>
            </g>
            <g id="Group-41" transform="translate(4.792107, 4.698278)">
                <mask id="mask-38" fill="white">
                    <use xlink:href="#path-37"></use>
                </mask>
                <g id="Clip-40"></g>
                <path d="M0.00660424846,9.9812544 C0.00660424846,15.4913722 4.47306957,19.9574549 9.98256317,19.9574549 L9.98256317,19.9574549 C15.4928823,19.9574549 19.9593476,15.4913722 19.9593476,9.9812544 L19.9593476,9.9812544 C19.9593476,4.47115675 15.4928823,0.00487264673 9.98256317,0.00487264673 L9.98256317,0.00487264673 C4.47306957,0.00487264673 0.00660424846,4.47115675 0.00660424846,9.9812544" id="Fill-39" fill="url(#radialGradient-39)" mask="url(#mask-38)"></path>
            </g>
            <g id="Group-44" transform="translate(0.483238, 0.550488)">
                <mask id="mask-41" fill="white">
                    <use xlink:href="#path-40"></use>
                </mask>
                <g id="Clip-43"></g>
                <path d="M0.0450820497,15.176563 C0.461189973,7.33065539 5.25329709,-1.14613913 18.233585,0.605597503 L18.233585,0.605597503 C16.4902044,0.203100775 14.8959025,0.0199134199 13.4405517,0.0199134199 L13.4405517,0.0199134199 C2.88360012,0.0199134199 -0.350125843,9.66147186 0.0450820497,15.176563" id="Fill-42" mask="url(#mask-41)"></path>
            </g>
            <g id="Group-47" transform="translate(14.295782, 18.168529)">
                <mask id="mask-43" fill="white">
                    <use xlink:href="#path-42"></use>
                </mask>
                <g id="Clip-46"></g>
                <path d="M0.0067653277,7.43811537 C8.20561764,7.31788986 10.8115574,-0.0222490688 10.6822914,0.00749018423 C9.61828249,2.13089701 6.95654888,6.88941911 0.0067653277,7.43811537" id="Fill-45" mask="url(#mask-43)"></path>
            </g>
            <g id="Group-50" transform="translate(8.013692, 18.430283)">
                <mask id="mask-45" fill="white">
                    <use xlink:href="#path-44"></use>
                </mask>
                <g id="Clip-49"></g>
                <path d="M0.00334239404,0.00898016712 L0.00334239404,0.953508507 C0.00334239404,1.31480922 0.310419813,1.61045002 0.685694151,1.61045002 L0.685694151,1.61045002 L1.72328602,1.61045002 C2.09856035,1.61045002 2.40563777,1.31480922 2.40563777,0.953508507 L2.40563777,0.953508507 L2.40563777,0.00898016712 L0.00334239404,0.00898016712 Z" id="Fill-48" fill="url(#linearGradient-46)" mask="url(#mask-45)"></path>
            </g>
            <g id="Group-53" transform="translate(6.765328, 11.081043)">
                <mask id="mask-48" fill="white">
                    <use xlink:href="#path-47"></use>
                </mask>
                <g id="Clip-52"></g>
                <path d="M0.394080338,0.0571428571 C0.394080338,0.0571428571 0.124413571,0.0769556025 0.0133695762,0.517144871 L0.0133695762,0.517144871 C-0.0976744186,0.957374409 0.742534984,1.27993557 0.933454143,1.3658512 L0.933454143,1.3658512 C1.82971912,1.6474177 1.98836203,1.36981778 2.01610792,0.905829055 L2.01610792,0.905829055 C2.06370684,0.38628813 1.67504279,0.140400685 1.47675425,0.0571428571 L1.47675425,0.0571428571 C1.40416793,0.0254907883 1.25972012,0.0149400987 1.09928521,0.0149400987 L1.09928521,0.0149400987 C0.778516058,0.0149400987 0.394080338,0.0571428571 0.394080338,0.0571428571" id="Fill-51" fill="url(#linearGradient-49)" mask="url(#mask-48)"></path>
            </g>
            <g id="Group-56" transform="translate(18.322763, 18.430283)">
                <mask id="mask-51" fill="white">
                    <use xlink:href="#path-50"></use>
                </mask>
                <g id="Clip-55"></g>
                <path d="M0.0160676533,0.00898016712 L0.0160676533,0.953508507 C0.0160676533,1.31480922 0.323124937,1.61045002 0.69841941,1.61045002 L0.69841941,1.61045002 L1.73599114,1.61045002 C2.11126548,1.61045002 2.41836303,1.31480922 2.41836303,0.953508507 L2.41836303,0.953508507 L2.41836303,0.00898016712 L0.0160676533,0.00898016712 Z" id="Fill-54" fill="url(#linearGradient-52)" mask="url(#mask-51)"></path>
            </g>
            <g id="Group-59" transform="translate(19.953690, 11.081043)">
                <mask id="mask-54" fill="white">
                    <use xlink:href="#path-53"></use>
                </mask>
                <g id="Clip-58"></g>
                <path d="M0.562367865,0.0571428571 C0.364079332,0.140400685 -0.0245847176,0.38628813 0.0230141951,0.905829055 L0.0230141951,0.905829055 C0.0507802275,1.36981778 0.209382865,1.6474177 1.10568811,1.3658512 L1.10568811,1.3658512 C1.29658713,1.27993557 2.13679654,0.957374409 2.02575254,0.517144871 L2.02575254,0.517144871 C1.91470855,0.0769556025 1.64502165,0.0571428571 1.64502165,0.0571428571 L1.64502165,0.0571428571 C1.64502165,0.0571428571 1.26060606,0.0149400987 0.939836907,0.0149400987 L0.939836907,0.0149400987 C0.779422128,0.0149400987 0.634954193,0.0254907883 0.562367865,0.0571428571" id="Fill-57" fill="url(#linearGradient-55)" mask="url(#mask-54)"></path>
            </g>
            <g id="Group-62" transform="translate(6.584114, 7.960133)">
                <mask id="mask-57" fill="white">
                    <use xlink:href="#path-56"></use>
                </mask>
                <g id="Clip-61"></g>
                <path d="M7.80761099,0.00738950972 L7.78230142,0.00738950972 L5.05484748,0.00738950972 C3.96424041,0.00738950972 2.9047015,0.883882009 2.70033223,1.9551797 L2.70033223,1.9551797 L2.15268298,4.8260143 C1.16130071,4.93315212 0.382824927,5.77871741 0.382824927,6.79736233 L0.382824927,6.79736233 L0.382824927,8.30756066 C0.382824927,8.38077117 0.386972717,8.45305547 0.394805195,8.52427263 L0.394805195,8.52427263 C0.16867009,8.62156448 0.00926205577,8.84681365 0.00926205577,9.10754052 L0.00926205577,9.10754052 L0.00926205577,9.67061311 C0.00926205577,10.0195913 0.294815262,10.3051445 0.643793416,10.3051445 L0.643793416,10.3051445 L7.78230142,10.3051445 L7.80761099,10.3051445 L14.9461391,10.3051445 C15.2951173,10.3051445 15.5806504,10.0195913 15.5806504,9.67061311 L15.5806504,9.67061311 L15.5806504,9.10754052 C15.5806504,8.84681365 15.4212423,8.62156448 15.1951072,8.52427263 L15.1951072,8.52427263 C15.2029397,8.45305547 15.2071076,8.38077117 15.2071076,8.30756066 L15.2071076,8.30756066 L15.2071076,6.79736233 C15.2071076,5.77871741 14.4286318,4.93315212 13.4372294,4.8260143 L13.4372294,4.8260143 L12.8895601,1.9551797 C12.6851908,0.883882009 11.6256519,0.00738950972 10.5350851,0.00738950972 L10.5350851,0.00738950972 L7.80761099,0.00738950972 Z M3.47947247,2.10379543 C3.54285714,1.77144871 3.75113259,1.43861875 4.05084063,1.19069767 L4.05084063,1.19069767 C4.35056881,0.942736333 4.71650055,0.800543642 5.05484748,0.800543642 L5.05484748,0.800543642 L7.78230142,0.800543642 L7.80761099,0.800543642 L10.5350851,0.800543642 C10.873432,0.800543642 11.2393637,0.942736333 11.5390919,1.19069767 L11.5390919,1.19069767 C11.8387798,1.43861875 12.0470553,1.77144871 12.1104601,2.10379543 L12.1104601,2.10379543 L12.6275647,4.81445686 L7.80761099,4.81445686 L7.78230142,4.81445686 L2.96234773,4.81445686 L3.47947247,2.10379543 Z M11.4532971,6.68780832 C11.4532971,6.06141146 11.9610994,5.55358905 12.5875164,5.55358905 L12.5875164,5.55358905 C13.2139535,5.55358905 13.7217558,6.06141146 13.7217558,6.68780832 L13.7217558,6.68780832 C13.7217558,7.31420517 13.2139535,7.82204772 12.5875164,7.82204772 L12.5875164,7.82204772 C11.9610994,7.82204772 11.4532971,7.31420517 11.4532971,6.68780832 L11.4532971,6.68780832 Z M1.86817678,6.68780832 C1.86817678,6.06141146 2.37597906,5.55358905 3.00239605,5.55358905 L3.00239605,5.55358905 C3.62881305,5.55358905 4.13661532,6.06141146 4.13661532,6.68780832 L4.13661532,6.68780832 C4.13661532,7.31420517 3.62881305,7.82204772 3.00239605,7.82204772 L3.00239605,7.82204772 C2.37597906,7.82204772 1.86817678,7.31420517 1.86817678,6.68780832 L1.86817678,6.68780832 Z M5.21532266,7.12699084 L5.21532266,7.05138427 C5.21532266,6.9205074 5.32240008,6.81342998 5.45325682,6.81342998 L5.45325682,6.81342998 L7.78230142,6.81342998 L7.80761099,6.81342998 L10.1366355,6.81342998 C10.2675526,6.81342998 10.3746099,6.9205074 10.3746099,7.05138427 L10.3746099,7.05138427 L10.3746099,7.12699084 C10.3746099,7.25786771 10.2675526,7.36494513 10.1366355,7.36494513 L10.1366355,7.36494513 L7.80761099,7.36494513 L7.78230142,7.36494513 L5.45325682,7.36494513 C5.32240008,7.36494513 5.21532266,7.25786771 5.21532266,7.12699084 L5.21532266,7.12699084 Z M5.21532266,8.26620356 L5.21532266,8.190597 C5.21532266,8.05972012 5.32240008,7.95264271 5.45325682,7.95264271 L5.45325682,7.95264271 L7.78230142,7.95264271 L7.80761099,7.95264271 L10.1366355,7.95264271 C10.2675526,7.95264271 10.3746099,8.05972012 10.3746099,8.190597 L10.3746099,8.190597 L10.3746099,8.26620356 C10.3746099,8.39708044 10.2675526,8.50415786 10.1366355,8.50415786 L10.1366355,8.50415786 L7.80761099,8.50415786 L7.78230142,8.50415786 L5.45325682,8.50415786 C5.32240008,8.50415786 5.21532266,8.39708044 5.21532266,8.26620356 L5.21532266,8.26620356 Z" id="Fill-60" fill="url(#linearGradient-58)" mask="url(#mask-57)"></path>
            </g>
        </g>
    </g>
</svg>